M48
; DRILL file {KiCad (6.0.9)} date Mon Feb 20 09:51:20 2023
; FORMAT={-:-/ absolute / metric / decimal}
; #@! TF.CreationDate,2023-02-20T09:51:20-08:00
; #@! TF.GenerationSoftware,Kicad,Pcbnew,(6.0.9)
; #@! TF.FileFunction,Plated,1,2,PTH
FMAT,2
METRIC
; #@! TA.AperFunction,Plated,PTH,ViaDrill
T1C0.400
; #@! TA.AperFunction,Plated,PTH,ComponentDrill
T2C0.890
; #@! TA.AperFunction,Plated,PTH,ComponentDrill
T3C0.991
; #@! TA.AperFunction,Plated,PTH,ComponentDrill
T4C1.000
; #@! TA.AperFunction,Plated,PTH,ComponentDrill
T5C2.010
; #@! TA.AperFunction,Plated,PTH,ComponentDrill
T6C3.200
%
G90
G05
T1
X46.99Y-115.57
X62.865Y-115.57
X63.5Y-120.015
X67.945Y-120.015
X74.93Y-123.19
X81.28Y-107.315
X82.55Y-104.775
X83.185Y-121.285
X83.82Y-104.775
X85.09Y-104.775
X86.337Y-129.563
X86.36Y-103.505
X87.63Y-87.63
X88.9Y-75.565
X88.9Y-129.47
X90.17Y-78.105
X90.805Y-88.175
X91.44Y-76.835
X93.345Y-85.725
X93.345Y-88.175
X93.98Y-74.295
X93.98Y-79.375
X93.98Y-136.595
X95.25Y-83.185
X99.06Y-125.095
X100.965Y-138.995
X102.235Y-137.16
X104.775Y-134.55
X106.045Y-87.63
X107.315Y-75.565
X107.95Y-135.82
X108.585Y-78.105
X109.22Y-139.63
X109.486Y-88.175
X109.855Y-76.835
X111.76Y-88.175
X112.07Y-86.05
X112.395Y-74.295
X112.395Y-79.375
X113.665Y-83.185
X126.365Y-87.63
X127.635Y-75.565
X128.905Y-78.105
X129.805Y-88.175
X130.175Y-76.835
X132.08Y-88.175
X132.39Y-86.05
X132.715Y-74.295
X132.715Y-79.375
X133.985Y-83.185
X146.685Y-87.63
X147.955Y-75.565
X149.225Y-78.105
X150.125Y-88.175
X150.495Y-76.835
X152.4Y-88.175
X152.71Y-86.05
X153.035Y-74.295
X153.035Y-79.375
X154.305Y-83.185
X167.005Y-87.63
X168.275Y-75.565
X169.545Y-78.105
X170.445Y-88.175
X170.815Y-76.835
X172.72Y-88.175
X173.03Y-86.05
X173.355Y-74.295
X173.355Y-79.375
X174.625Y-83.185
X187.325Y-87.63
X188.595Y-75.565
X189.775Y-78.105
X190.766Y-88.175
X191.135Y-76.835
X193.04Y-88.175
X193.385Y-86.015
X193.675Y-74.295
X193.675Y-79.375
X194.945Y-83.185
T2
X46.99Y-129.563
X46.99Y-132.103
T3
X62.23Y-127.023
X62.23Y-132.103
X64.77Y-129.563
X69.85Y-129.563
X74.93Y-129.563
X77.47Y-127.023
X77.47Y-132.103
T4
X40.005Y-95.25
X40.005Y-110.49
X42.545Y-95.25
X42.545Y-110.49
X45.085Y-95.25
X45.085Y-110.49
X47.625Y-95.25
X47.625Y-110.49
X50.165Y-95.25
X50.165Y-110.49
X52.705Y-95.25
X52.705Y-110.49
X55.245Y-95.25
X55.245Y-110.49
X57.785Y-95.25
X57.785Y-110.49
X60.325Y-95.25
X60.325Y-110.49
X62.865Y-95.25
X62.865Y-110.49
X65.405Y-95.25
X65.405Y-110.49
X67.945Y-95.25
X67.945Y-110.49
X70.485Y-95.25
X70.485Y-110.49
X73.025Y-95.25
X73.025Y-110.49
X75.565Y-95.25
X75.565Y-110.49
X204.66Y-98.945
X204.66Y-101.715
X204.66Y-104.485
X204.66Y-107.255
X204.66Y-110.025
X204.66Y-112.795
X204.66Y-115.565
X204.66Y-118.335
X204.66Y-121.105
X204.66Y-123.875
X204.66Y-126.645
X204.66Y-129.415
X204.66Y-132.185
X207.5Y-100.33
X207.5Y-103.1
X207.5Y-105.87
X207.5Y-108.64
X207.5Y-111.41
X207.5Y-114.18
X207.5Y-116.95
X207.5Y-119.72
X207.5Y-122.49
X207.5Y-125.26
X207.5Y-128.03
X207.5Y-130.8
T5
X41.91Y-124.483
X41.91Y-134.643
T6
X204.96Y-92.015
X204.96Y-139.115
T4
G00X35.14Y-81.645
M15
G01X35.14Y-79.645
M16
G05
G00X41.14Y-81.295
M15
G01X41.14Y-79.995
M16
G05
G00X41.39Y-76.145
M15
G01X42.89Y-76.145
M16
G05
G00X41.39Y-85.145
M15
G01X42.89Y-85.145
M16
G05
T0
M30
