%TF.GenerationSoftware,KiCad,Pcbnew,(6.0.9)*%
%TF.CreationDate,2023-02-20T09:51:29-08:00*%
%TF.ProjectId,RF_control_board_v2,52465f63-6f6e-4747-926f-6c5f626f6172,rev?*%
%TF.SameCoordinates,Original*%
%TF.FileFunction,Soldermask,Bot*%
%TF.FilePolarity,Negative*%
%FSLAX46Y46*%
G04 Gerber Fmt 4.6, Leading zero omitted, Abs format (unit mm)*
G04 Created by KiCad (PCBNEW (6.0.9)) date 2023-02-20 09:51:29*
%MOMM*%
%LPD*%
G01*
G04 APERTURE LIST*
%ADD10R,1.600000X1.600000*%
%ADD11C,1.600000*%
%ADD12C,4.000000*%
%ADD13O,1.600000X1.600000*%
%ADD14C,1.498600*%
%ADD15O,2.500000X1.600000*%
%ADD16O,7.000000X3.500000*%
%ADD17R,2.000000X4.000000*%
%ADD18O,2.000000X3.300000*%
%ADD19O,3.500000X2.000000*%
G04 APERTURE END LIST*
D10*
%TO.C,J2*%
X204659669Y-98945000D03*
D11*
X204659669Y-101715000D03*
X204659669Y-104485000D03*
X204659669Y-107255000D03*
X204659669Y-110025000D03*
X204659669Y-112795000D03*
X204659669Y-115565000D03*
X204659669Y-118335000D03*
X204659669Y-121105000D03*
X204659669Y-123875000D03*
X204659669Y-126645000D03*
X204659669Y-129415000D03*
X204659669Y-132185000D03*
X207499669Y-100330000D03*
X207499669Y-103100000D03*
X207499669Y-105870000D03*
X207499669Y-108640000D03*
X207499669Y-111410000D03*
X207499669Y-114180000D03*
X207499669Y-116950000D03*
X207499669Y-119720000D03*
X207499669Y-122490000D03*
X207499669Y-125260000D03*
X207499669Y-128030000D03*
X207499669Y-130800000D03*
D12*
X204959669Y-139115000D03*
X204959669Y-92015000D03*
%TD*%
D10*
%TO.C,A1*%
X75565000Y-95250000D03*
D13*
X73025000Y-95250000D03*
X70485000Y-95250000D03*
X67945000Y-95250000D03*
X65405000Y-95250000D03*
X62865000Y-95250000D03*
X60325000Y-95250000D03*
X57785000Y-95250000D03*
X55245000Y-95250000D03*
X52705000Y-95250000D03*
X50165000Y-95250000D03*
X47625000Y-95250000D03*
X45085000Y-95250000D03*
X42545000Y-95250000D03*
X40005000Y-95250000D03*
X40005000Y-110490000D03*
X42545000Y-110490000D03*
X45085000Y-110490000D03*
X47625000Y-110490000D03*
X50165000Y-110490000D03*
X52705000Y-110490000D03*
X55245000Y-110490000D03*
X57785000Y-110490000D03*
X60325000Y-110490000D03*
X62865000Y-110490000D03*
X65405000Y-110490000D03*
X67945000Y-110490000D03*
X70485000Y-110490000D03*
X73025000Y-110490000D03*
X75565000Y-110490000D03*
%TD*%
D14*
%TO.C,SW1*%
X74930000Y-129563226D03*
X69850000Y-129563226D03*
X64770000Y-129563226D03*
X77470000Y-132103226D03*
X62230000Y-132103226D03*
X77470000Y-127023226D03*
X62230000Y-127023226D03*
%TD*%
D15*
%TO.C,J3*%
X46990000Y-129563226D03*
D16*
X41910000Y-124483226D03*
D15*
X46990000Y-132103226D03*
D16*
X41910000Y-134643226D03*
%TD*%
D11*
%TO.C,J1*%
X44140000Y-80645000D03*
D17*
X35140000Y-80645000D03*
D18*
X41140000Y-80645000D03*
D19*
X42140000Y-76145000D03*
X42140000Y-85145000D03*
%TD*%
M02*
