%TF.GenerationSoftware,KiCad,Pcbnew,(6.0.9)*%
%TF.CreationDate,2023-02-20T09:51:29-08:00*%
%TF.ProjectId,RF_control_board_v2,52465f63-6f6e-4747-926f-6c5f626f6172,rev?*%
%TF.SameCoordinates,Original*%
%TF.FileFunction,Copper,L1,Top*%
%TF.FilePolarity,Positive*%
%FSLAX46Y46*%
G04 Gerber Fmt 4.6, Leading zero omitted, Abs format (unit mm)*
G04 Created by KiCad (PCBNEW (6.0.9)) date 2023-02-20 09:51:29*
%MOMM*%
%LPD*%
G01*
G04 APERTURE LIST*
G04 Aperture macros list*
%AMRoundRect*
0 Rectangle with rounded corners*
0 $1 Rounding radius*
0 $2 $3 $4 $5 $6 $7 $8 $9 X,Y pos of 4 corners*
0 Add a 4 corners polygon primitive as box body*
4,1,4,$2,$3,$4,$5,$6,$7,$8,$9,$2,$3,0*
0 Add four circle primitives for the rounded corners*
1,1,$1+$1,$2,$3*
1,1,$1+$1,$4,$5*
1,1,$1+$1,$6,$7*
1,1,$1+$1,$8,$9*
0 Add four rect primitives between the rounded corners*
20,1,$1+$1,$2,$3,$4,$5,0*
20,1,$1+$1,$4,$5,$6,$7,0*
20,1,$1+$1,$6,$7,$8,$9,0*
20,1,$1+$1,$8,$9,$2,$3,0*%
G04 Aperture macros list end*
%TA.AperFunction,EtchedComponent*%
%ADD10C,0.100000*%
%TD*%
%TA.AperFunction,SMDPad,CuDef*%
%ADD11RoundRect,0.250000X0.250000X0.475000X-0.250000X0.475000X-0.250000X-0.475000X0.250000X-0.475000X0*%
%TD*%
%TA.AperFunction,ComponentPad*%
%ADD12R,1.600000X1.600000*%
%TD*%
%TA.AperFunction,ComponentPad*%
%ADD13C,1.600000*%
%TD*%
%TA.AperFunction,ComponentPad*%
%ADD14C,4.000000*%
%TD*%
%TA.AperFunction,SMDPad,CuDef*%
%ADD15RoundRect,0.200000X-0.275000X0.200000X-0.275000X-0.200000X0.275000X-0.200000X0.275000X0.200000X0*%
%TD*%
%TA.AperFunction,SMDPad,CuDef*%
%ADD16R,0.406400X0.903199*%
%TD*%
%TA.AperFunction,SMDPad,CuDef*%
%ADD17RoundRect,0.200000X-0.200000X-0.275000X0.200000X-0.275000X0.200000X0.275000X-0.200000X0.275000X0*%
%TD*%
%TA.AperFunction,SMDPad,CuDef*%
%ADD18RoundRect,0.100000X0.100000X-0.637500X0.100000X0.637500X-0.100000X0.637500X-0.100000X-0.637500X0*%
%TD*%
%TA.AperFunction,SMDPad,CuDef*%
%ADD19RoundRect,0.225000X0.250000X-0.225000X0.250000X0.225000X-0.250000X0.225000X-0.250000X-0.225000X0*%
%TD*%
%TA.AperFunction,SMDPad,CuDef*%
%ADD20R,1.016000X1.270000*%
%TD*%
%TA.AperFunction,SMDPad,CuDef*%
%ADD21RoundRect,0.200000X0.200000X0.275000X-0.200000X0.275000X-0.200000X-0.275000X0.200000X-0.275000X0*%
%TD*%
%TA.AperFunction,SMDPad,CuDef*%
%ADD22RoundRect,0.225000X-0.225000X-0.250000X0.225000X-0.250000X0.225000X0.250000X-0.225000X0.250000X0*%
%TD*%
%TA.AperFunction,SMDPad,CuDef*%
%ADD23R,1.016000X0.889000*%
%TD*%
%TA.AperFunction,SMDPad,CuDef*%
%ADD24RoundRect,0.200000X0.275000X-0.200000X0.275000X0.200000X-0.275000X0.200000X-0.275000X-0.200000X0*%
%TD*%
%TA.AperFunction,SMDPad,CuDef*%
%ADD25RoundRect,0.225000X0.225000X0.250000X-0.225000X0.250000X-0.225000X-0.250000X0.225000X-0.250000X0*%
%TD*%
%TA.AperFunction,ComponentPad*%
%ADD26O,1.600000X1.600000*%
%TD*%
%TA.AperFunction,ComponentPad*%
%ADD27C,1.498600*%
%TD*%
%TA.AperFunction,ComponentPad*%
%ADD28O,2.500000X1.600000*%
%TD*%
%TA.AperFunction,ComponentPad*%
%ADD29O,7.000000X3.500000*%
%TD*%
%TA.AperFunction,SMDPad,CuDef*%
%ADD30R,0.399999X0.850001*%
%TD*%
%TA.AperFunction,ComponentPad*%
%ADD31R,2.000000X4.000000*%
%TD*%
%TA.AperFunction,ComponentPad*%
%ADD32O,2.000000X3.300000*%
%TD*%
%TA.AperFunction,ComponentPad*%
%ADD33O,3.500000X2.000000*%
%TD*%
%TA.AperFunction,ViaPad*%
%ADD34C,0.800000*%
%TD*%
%TA.AperFunction,Conductor*%
%ADD35C,0.250000*%
%TD*%
%TA.AperFunction,Conductor*%
%ADD36C,0.200000*%
%TD*%
G04 APERTURE END LIST*
%TO.C,U1*%
G36*
X97980500Y-131210200D02*
G01*
X96964500Y-131210200D01*
X96964500Y-128009800D01*
X97980500Y-128009800D01*
X97980500Y-131210200D01*
G37*
D10*
X97980500Y-131210200D02*
X96964500Y-131210200D01*
X96964500Y-128009800D01*
X97980500Y-128009800D01*
X97980500Y-131210200D01*
%TD*%
D11*
%TO.P,C9,1*%
%TO.N,Net-(C9-Pad1)*%
X97470000Y-135325000D03*
%TO.P,C9,2*%
%TO.N,GND*%
X95570000Y-135325000D03*
%TD*%
D12*
%TO.P,J2,1,1*%
%TO.N,Net-(J2-Pad1)*%
X204659669Y-98945000D03*
D13*
%TO.P,J2,2,2*%
%TO.N,Net-(J2-Pad2)*%
X204659669Y-101715000D03*
%TO.P,J2,3,3*%
%TO.N,Net-(J2-Pad3)*%
X204659669Y-104485000D03*
%TO.P,J2,4,4*%
%TO.N,Net-(J2-Pad4)*%
X204659669Y-107255000D03*
%TO.P,J2,5,5*%
%TO.N,Net-(J2-Pad5)*%
X204659669Y-110025000D03*
%TO.P,J2,6,6*%
%TO.N,Net-(J2-Pad6)*%
X204659669Y-112795000D03*
%TO.P,J2,7,7*%
%TO.N,Net-(J2-Pad7)*%
X204659669Y-115565000D03*
%TO.P,J2,8,8*%
%TO.N,Net-(J2-Pad8)*%
X204659669Y-118335000D03*
%TO.P,J2,9,9*%
%TO.N,Net-(J2-Pad9)*%
X204659669Y-121105000D03*
%TO.P,J2,10,10*%
%TO.N,Net-(J2-Pad10)*%
X204659669Y-123875000D03*
%TO.P,J2,11,11*%
%TO.N,Net-(J2-Pad11)*%
X204659669Y-126645000D03*
%TO.P,J2,12,12*%
%TO.N,Net-(J2-Pad12)*%
X204659669Y-129415000D03*
%TO.P,J2,13,13*%
%TO.N,unconnected-(J2-Pad13)*%
X204659669Y-132185000D03*
%TO.P,J2,14,P14*%
%TO.N,Net-(J2-Pad14)*%
X207499669Y-100330000D03*
%TO.P,J2,15,P15*%
%TO.N,Net-(J2-Pad15)*%
X207499669Y-103100000D03*
%TO.P,J2,16,P16*%
%TO.N,Net-(J2-Pad16)*%
X207499669Y-105870000D03*
%TO.P,J2,17,P17*%
%TO.N,Net-(J2-Pad17)*%
X207499669Y-108640000D03*
%TO.P,J2,18,P18*%
%TO.N,Net-(J2-Pad18)*%
X207499669Y-111410000D03*
%TO.P,J2,19,P19*%
%TO.N,Net-(J2-Pad19)*%
X207499669Y-114180000D03*
%TO.P,J2,20,P20*%
%TO.N,Net-(J2-Pad20)*%
X207499669Y-116950000D03*
%TO.P,J2,21,P21*%
%TO.N,Net-(J2-Pad21)*%
X207499669Y-119720000D03*
%TO.P,J2,22,P22*%
%TO.N,Net-(J2-Pad22)*%
X207499669Y-122490000D03*
%TO.P,J2,23,P23*%
%TO.N,Net-(J2-Pad23)*%
X207499669Y-125260000D03*
%TO.P,J2,24,P24*%
%TO.N,Net-(J2-Pad24)*%
X207499669Y-128030000D03*
%TO.P,J2,25,P25*%
%TO.N,Net-(J2-Pad25)*%
X207499669Y-130800000D03*
D14*
%TO.P,J2,0,PAD*%
%TO.N,unconnected-(J2-Pad0)*%
X204959669Y-139115000D03*
X204959669Y-92015000D03*
%TD*%
D15*
%TO.P,R19,1*%
%TO.N,GND*%
X95250000Y-84900000D03*
%TO.P,R19,2*%
%TO.N,Net-(R19-Pad2)*%
X95250000Y-86550000D03*
%TD*%
D16*
%TO.P,U32,1,CATHODE*%
%TO.N,Net-(R40-Pad1)*%
X84774999Y-92100400D03*
%TO.P,U32,2,CATHODE*%
%TO.N,Net-(U12-Pad2)*%
X86675001Y-92100400D03*
%TO.P,U32,3,ANODE*%
%TO.N,Net-(J2-Pad25)*%
X86675001Y-89509600D03*
%TO.P,U32,4,NC*%
%TO.N,unconnected-(U32-Pad4)*%
X85725000Y-89509600D03*
%TO.P,U32,5,ANODE*%
%TO.N,Net-(U12-Pad2)*%
X84774999Y-89509600D03*
%TD*%
D17*
%TO.P,R36,1*%
%TO.N,Net-(R36-Pad1)*%
X103315000Y-93980000D03*
%TO.P,R36,2*%
%TO.N,Net-(J2-Pad23)*%
X104965000Y-93980000D03*
%TD*%
D15*
%TO.P,R2,1*%
%TO.N,Net-(A1-Pad23)*%
X57785000Y-118555000D03*
%TO.P,R2,2*%
%TO.N,Net-(A1-Pad27)*%
X57785000Y-120205000D03*
%TD*%
D18*
%TO.P,U8,1,~{SLEEP}*%
%TO.N,Net-(A1-Pad22)*%
X167270000Y-86047500D03*
%TO.P,U8,2,OUT1*%
%TO.N,Net-(U17-Pad2)*%
X167920000Y-86047500D03*
%TO.P,U8,3,ISEN12*%
%TO.N,Net-(R15-Pad2)*%
X168570000Y-86047500D03*
%TO.P,U8,4,OUT2*%
%TO.N,Net-(U16-Pad2)*%
X169220000Y-86047500D03*
%TO.P,U8,5,OUT4*%
%TO.N,Net-(U14-Pad2)*%
X169870000Y-86047500D03*
%TO.P,U8,6,ISEN34*%
%TO.N,Net-(R15-Pad2)*%
X170520000Y-86047500D03*
%TO.P,U8,7,OUT3*%
%TO.N,Net-(U15-Pad2)*%
X171170000Y-86047500D03*
%TO.P,U8,8,~{FAULT}*%
%TO.N,Net-(A1-Pad9)*%
X171820000Y-86047500D03*
%TO.P,U8,9,IN3*%
%TO.N,unconnected-(U8-Pad9)*%
X171820000Y-80322500D03*
%TO.P,U8,10,IN4*%
%TO.N,unconnected-(U8-Pad10)*%
X171170000Y-80322500D03*
%TO.P,U8,11,SCL*%
%TO.N,Net-(A1-Pad24)*%
X170520000Y-80322500D03*
%TO.P,U8,12,VM*%
%TO.N,Net-(C1-Pad2)*%
X169870000Y-80322500D03*
%TO.P,U8,13,GND*%
%TO.N,GND*%
X169220000Y-80322500D03*
%TO.P,U8,14,SDA*%
%TO.N,Net-(A1-Pad23)*%
X168570000Y-80322500D03*
%TO.P,U8,15,IN2*%
%TO.N,unconnected-(U8-Pad15)*%
X167920000Y-80322500D03*
%TO.P,U8,16,IN1*%
%TO.N,unconnected-(U8-Pad16)*%
X167270000Y-80322500D03*
%TD*%
D15*
%TO.P,R1,1*%
%TO.N,Net-(A1-Pad24)*%
X60325000Y-118555000D03*
%TO.P,R1,2*%
%TO.N,Net-(A1-Pad27)*%
X60325000Y-120205000D03*
%TD*%
D19*
%TO.P,C7,1*%
%TO.N,GND*%
X95250000Y-81420000D03*
%TO.P,C7,2*%
%TO.N,Net-(C1-Pad2)*%
X95250000Y-79870000D03*
%TD*%
D16*
%TO.P,U13,1,CATHODE*%
%TO.N,Net-(R20-Pad1)*%
X184469999Y-92100400D03*
%TO.P,U13,2,CATHODE*%
%TO.N,Net-(U13-Pad2)*%
X186370001Y-92100400D03*
%TO.P,U13,3,ANODE*%
%TO.N,Net-(J2-Pad15)*%
X186370001Y-89509600D03*
%TO.P,U13,4,NC*%
%TO.N,unconnected-(U13-Pad4)*%
X185420000Y-89509600D03*
%TO.P,U13,5,ANODE*%
%TO.N,Net-(U13-Pad2)*%
X184469999Y-89509600D03*
%TD*%
D18*
%TO.P,U10,1,~{SLEEP}*%
%TO.N,Net-(A1-Pad22)*%
X126630000Y-86047500D03*
%TO.P,U10,2,OUT1*%
%TO.N,Net-(U10-Pad2)*%
X127280000Y-86047500D03*
%TO.P,U10,3,ISEN12*%
%TO.N,Net-(R17-Pad2)*%
X127930000Y-86047500D03*
%TO.P,U10,4,OUT2*%
%TO.N,Net-(U10-Pad4)*%
X128580000Y-86047500D03*
%TO.P,U10,5,OUT4*%
%TO.N,Net-(U10-Pad5)*%
X129230000Y-86047500D03*
%TO.P,U10,6,ISEN34*%
%TO.N,Net-(R17-Pad2)*%
X129880000Y-86047500D03*
%TO.P,U10,7,OUT3*%
%TO.N,Net-(U10-Pad7)*%
X130530000Y-86047500D03*
%TO.P,U10,8,~{FAULT}*%
%TO.N,Net-(A1-Pad7)*%
X131180000Y-86047500D03*
%TO.P,U10,9,IN3*%
%TO.N,unconnected-(U10-Pad9)*%
X131180000Y-80322500D03*
%TO.P,U10,10,IN4*%
%TO.N,unconnected-(U10-Pad10)*%
X130530000Y-80322500D03*
%TO.P,U10,11,SCL*%
%TO.N,Net-(A1-Pad24)*%
X129880000Y-80322500D03*
%TO.P,U10,12,VM*%
%TO.N,Net-(C1-Pad2)*%
X129230000Y-80322500D03*
%TO.P,U10,13,GND*%
%TO.N,GND*%
X128580000Y-80322500D03*
%TO.P,U10,14,SDA*%
%TO.N,Net-(A1-Pad23)*%
X127930000Y-80322500D03*
%TO.P,U10,15,IN2*%
%TO.N,unconnected-(U10-Pad15)*%
X127280000Y-80322500D03*
%TO.P,U10,16,IN1*%
%TO.N,unconnected-(U10-Pad16)*%
X126630000Y-80322500D03*
%TD*%
D17*
%TO.P,R22,1*%
%TO.N,Net-(R22-Pad1)*%
X171895000Y-93980000D03*
%TO.P,R22,2*%
%TO.N,Net-(J2-Pad16)*%
X173545000Y-93980000D03*
%TD*%
D16*
%TO.P,U19,1,CATHODE*%
%TO.N,Net-(R26-Pad1)*%
X151449999Y-92100400D03*
%TO.P,U19,2,CATHODE*%
%TO.N,Net-(U19-Pad2)*%
X153350001Y-92100400D03*
%TO.P,U19,3,ANODE*%
%TO.N,Net-(J2-Pad18)*%
X153350001Y-89509600D03*
%TO.P,U19,4,NC*%
%TO.N,unconnected-(U19-Pad4)*%
X152400000Y-89509600D03*
%TO.P,U19,5,ANODE*%
%TO.N,Net-(U19-Pad2)*%
X151449999Y-89509600D03*
%TD*%
D19*
%TO.P,C5,1*%
%TO.N,GND*%
X113665000Y-81420000D03*
%TO.P,C5,2*%
%TO.N,Net-(C1-Pad2)*%
X113665000Y-79870000D03*
%TD*%
D20*
%TO.P,V3,1*%
%TO.N,Net-(J2-Pad2)*%
X190119000Y-95885000D03*
%TO.P,V3,2*%
%TO.N,Net-(J2-Pad15)*%
X187071000Y-95885000D03*
%TD*%
D16*
%TO.P,U26,1,CATHODE*%
%TO.N,Net-(R33-Pad1)*%
X114619999Y-92100400D03*
%TO.P,U26,2,CATHODE*%
%TO.N,Net-(U11-Pad5)*%
X116520001Y-92100400D03*
%TO.P,U26,3,ANODE*%
%TO.N,Net-(J2-Pad9)*%
X116520001Y-89509600D03*
%TO.P,U26,4,NC*%
%TO.N,unconnected-(U26-Pad4)*%
X115570000Y-89509600D03*
%TO.P,U26,5,ANODE*%
%TO.N,Net-(U11-Pad5)*%
X114619999Y-89509600D03*
%TD*%
D17*
%TO.P,R24,1*%
%TO.N,Net-(R24-Pad1)*%
X164275000Y-93980000D03*
%TO.P,R24,2*%
%TO.N,Net-(J2-Pad17)*%
X165925000Y-93980000D03*
%TD*%
%TO.P,R20,1*%
%TO.N,Net-(R20-Pad1)*%
X184595000Y-93980000D03*
%TO.P,R20,2*%
%TO.N,Net-(J2-Pad15)*%
X186245000Y-93980000D03*
%TD*%
%TO.P,R35,1*%
%TO.N,Net-(R35-Pad1)*%
X107315000Y-93980000D03*
%TO.P,R35,2*%
%TO.N,Net-(J2-Pad10)*%
X108965000Y-93980000D03*
%TD*%
D21*
%TO.P,R11,1*%
%TO.N,Net-(A1-Pad27)*%
X154495000Y-78105000D03*
%TO.P,R11,2*%
%TO.N,Net-(A1-Pad8)*%
X152845000Y-78105000D03*
%TD*%
D22*
%TO.P,C8,1*%
%TO.N,Net-(A1-Pad27)*%
X91300000Y-135325000D03*
%TO.P,C8,2*%
%TO.N,GND*%
X92850000Y-135325000D03*
%TD*%
D16*
%TO.P,U4,1,CATHODE*%
%TO.N,Net-(R4-Pad1)*%
X195899999Y-92100400D03*
%TO.P,U4,2,CATHODE*%
%TO.N,Net-(U3-Pad5)*%
X197800001Y-92100400D03*
%TO.P,U4,3,ANODE*%
%TO.N,Net-(J2-Pad1)*%
X197800001Y-89509600D03*
%TO.P,U4,4,NC*%
%TO.N,unconnected-(U4-Pad4)*%
X196850000Y-89509600D03*
%TO.P,U4,5,ANODE*%
%TO.N,Net-(U3-Pad5)*%
X195899999Y-89509600D03*
%TD*%
D20*
%TO.P,V1,1*%
%TO.N,Net-(J2-Pad1)*%
X200279000Y-95885000D03*
%TO.P,V1,2*%
%TO.N,Net-(J2-Pad14)*%
X197231000Y-95885000D03*
%TD*%
D17*
%TO.P,R37,1*%
%TO.N,Net-(R37-Pad1)*%
X96330000Y-93980000D03*
%TO.P,R37,2*%
%TO.N,Net-(J2-Pad11)*%
X97980000Y-93980000D03*
%TD*%
D23*
%TO.P,U1,1,SET*%
%TO.N,Net-(C9-Pad1)*%
X90487500Y-127311300D03*
%TO.P,U1,2,OUT*%
%TO.N,Net-(A1-Pad25)*%
X90487500Y-129610000D03*
%TO.P,U1,3,IN*%
%TO.N,Net-(A1-Pad27)*%
X90487500Y-131908700D03*
%TD*%
D24*
%TO.P,R8,1*%
%TO.N,Net-(R8-Pad1)*%
X103505000Y-139330001D03*
%TO.P,R8,2*%
%TO.N,Net-(C1-Pad2)*%
X103505000Y-137680001D03*
%TD*%
D20*
%TO.P,V15,1*%
%TO.N,Net-(J2-Pad8)*%
X129159000Y-95885000D03*
%TO.P,V15,2*%
%TO.N,Net-(J2-Pad21)*%
X126111000Y-95885000D03*
%TD*%
D21*
%TO.P,R12,1*%
%TO.N,Net-(A1-Pad27)*%
X134175000Y-78105000D03*
%TO.P,R12,2*%
%TO.N,Net-(A1-Pad7)*%
X132525000Y-78105000D03*
%TD*%
D20*
%TO.P,V13,1*%
%TO.N,Net-(J2-Pad7)*%
X139319000Y-95885000D03*
%TO.P,V13,2*%
%TO.N,Net-(J2-Pad20)*%
X136271000Y-95885000D03*
%TD*%
%TO.P,V2,1*%
%TO.N,Net-(J2-Pad14)*%
X195199000Y-95885000D03*
%TO.P,V2,2*%
%TO.N,Net-(J2-Pad2)*%
X192151000Y-95885000D03*
%TD*%
D21*
%TO.P,R10,1*%
%TO.N,Net-(A1-Pad27)*%
X174815000Y-78105000D03*
%TO.P,R10,2*%
%TO.N,Net-(A1-Pad9)*%
X173165000Y-78105000D03*
%TD*%
D15*
%TO.P,R18,1*%
%TO.N,GND*%
X113665000Y-84900000D03*
%TO.P,R18,2*%
%TO.N,Net-(R18-Pad2)*%
X113665000Y-86550000D03*
%TD*%
D16*
%TO.P,U15,1,CATHODE*%
%TO.N,Net-(R22-Pad1)*%
X171769999Y-92100400D03*
%TO.P,U15,2,CATHODE*%
%TO.N,Net-(U15-Pad2)*%
X173670001Y-92100400D03*
%TO.P,U15,3,ANODE*%
%TO.N,Net-(J2-Pad16)*%
X173670001Y-89509600D03*
%TO.P,U15,4,NC*%
%TO.N,unconnected-(U15-Pad4)*%
X172720000Y-89509600D03*
%TO.P,U15,5,ANODE*%
%TO.N,Net-(U15-Pad2)*%
X171769999Y-89509600D03*
%TD*%
D15*
%TO.P,R3,1*%
%TO.N,GND*%
X194945000Y-84900000D03*
%TO.P,R3,2*%
%TO.N,Net-(R3-Pad2)*%
X194945000Y-86550000D03*
%TD*%
D19*
%TO.P,C3,1*%
%TO.N,GND*%
X174625000Y-81420000D03*
%TO.P,C3,2*%
%TO.N,Net-(C1-Pad2)*%
X174625000Y-79870000D03*
%TD*%
D16*
%TO.P,U24,1,CATHODE*%
%TO.N,Net-(R31-Pad1)*%
X127319999Y-92100400D03*
%TO.P,U24,2,CATHODE*%
%TO.N,Net-(U10-Pad4)*%
X129220001Y-92100400D03*
%TO.P,U24,3,ANODE*%
%TO.N,Net-(J2-Pad8)*%
X129220001Y-89509600D03*
%TO.P,U24,4,NC*%
%TO.N,unconnected-(U24-Pad4)*%
X128270000Y-89509600D03*
%TO.P,U24,5,ANODE*%
%TO.N,Net-(U10-Pad4)*%
X127319999Y-89509600D03*
%TD*%
D17*
%TO.P,R29,1*%
%TO.N,Net-(R29-Pad1)*%
X135065000Y-93980000D03*
%TO.P,R29,2*%
%TO.N,Net-(J2-Pad7)*%
X136715000Y-93980000D03*
%TD*%
D20*
%TO.P,V20,1*%
%TO.N,Net-(J2-Pad23)*%
X103759000Y-95885000D03*
%TO.P,V20,2*%
%TO.N,Net-(J2-Pad11)*%
X100711000Y-95885000D03*
%TD*%
%TO.P,V18,1*%
%TO.N,Net-(J2-Pad22)*%
X113919000Y-95885000D03*
%TO.P,V18,2*%
%TO.N,Net-(J2-Pad10)*%
X110871000Y-95885000D03*
%TD*%
D15*
%TO.P,R15,1*%
%TO.N,GND*%
X174625000Y-84900000D03*
%TO.P,R15,2*%
%TO.N,Net-(R15-Pad2)*%
X174625000Y-86550000D03*
%TD*%
D20*
%TO.P,V14,1*%
%TO.N,Net-(J2-Pad20)*%
X134239000Y-95885000D03*
%TO.P,V14,2*%
%TO.N,Net-(J2-Pad8)*%
X131191000Y-95885000D03*
%TD*%
D16*
%TO.P,U31,1,CATHODE*%
%TO.N,Net-(R39-Pad1)*%
X88584999Y-92100400D03*
%TO.P,U31,2,CATHODE*%
%TO.N,Net-(U12-Pad4)*%
X90485001Y-92100400D03*
%TO.P,U31,3,ANODE*%
%TO.N,Net-(J2-Pad12)*%
X90485001Y-89509600D03*
%TO.P,U31,4,NC*%
%TO.N,unconnected-(U31-Pad4)*%
X89535000Y-89509600D03*
%TO.P,U31,5,ANODE*%
%TO.N,Net-(U12-Pad4)*%
X88584999Y-89509600D03*
%TD*%
D18*
%TO.P,U3,1,~{SLEEP}*%
%TO.N,Net-(A1-Pad22)*%
X187590000Y-86047500D03*
%TO.P,U3,2,OUT1*%
%TO.N,Net-(U13-Pad2)*%
X188240000Y-86047500D03*
%TO.P,U3,3,ISEN12*%
%TO.N,Net-(R3-Pad2)*%
X188890000Y-86047500D03*
%TO.P,U3,4,OUT2*%
%TO.N,Net-(U3-Pad4)*%
X189540000Y-86047500D03*
%TO.P,U3,5,OUT4*%
%TO.N,Net-(U3-Pad5)*%
X190190000Y-86047500D03*
%TO.P,U3,6,ISEN34*%
%TO.N,Net-(R3-Pad2)*%
X190840000Y-86047500D03*
%TO.P,U3,7,OUT3*%
%TO.N,Net-(U3-Pad7)*%
X191490000Y-86047500D03*
%TO.P,U3,8,~{FAULT}*%
%TO.N,Net-(A1-Pad10)*%
X192140000Y-86047500D03*
%TO.P,U3,9,IN3*%
%TO.N,unconnected-(U3-Pad9)*%
X192140000Y-80322500D03*
%TO.P,U3,10,IN4*%
%TO.N,unconnected-(U3-Pad10)*%
X191490000Y-80322500D03*
%TO.P,U3,11,SCL*%
%TO.N,Net-(A1-Pad24)*%
X190840000Y-80322500D03*
%TO.P,U3,12,VM*%
%TO.N,Net-(C1-Pad2)*%
X190190000Y-80322500D03*
%TO.P,U3,13,GND*%
%TO.N,GND*%
X189540000Y-80322500D03*
%TO.P,U3,14,SDA*%
%TO.N,Net-(A1-Pad23)*%
X188890000Y-80322500D03*
%TO.P,U3,15,IN2*%
%TO.N,unconnected-(U3-Pad15)*%
X188240000Y-80322500D03*
%TO.P,U3,16,IN1*%
%TO.N,unconnected-(U3-Pad16)*%
X187590000Y-80322500D03*
%TD*%
D20*
%TO.P,V6,1*%
%TO.N,Net-(J2-Pad16)*%
X174879000Y-95885000D03*
%TO.P,V6,2*%
%TO.N,Net-(J2-Pad4)*%
X171831000Y-95885000D03*
%TD*%
%TO.P,V23,1*%
%TO.N,Net-(J2-Pad12)*%
X88519000Y-95885000D03*
%TO.P,V23,2*%
%TO.N,Net-(J2-Pad25)*%
X85471000Y-95885000D03*
%TD*%
%TO.P,V12,1*%
%TO.N,Net-(J2-Pad19)*%
X144399000Y-95885000D03*
%TO.P,V12,2*%
%TO.N,Net-(J2-Pad7)*%
X141351000Y-95885000D03*
%TD*%
D17*
%TO.P,R40,1*%
%TO.N,Net-(R40-Pad1)*%
X84900000Y-93980000D03*
%TO.P,R40,2*%
%TO.N,Net-(J2-Pad25)*%
X86550000Y-93980000D03*
%TD*%
D20*
%TO.P,V8,1*%
%TO.N,Net-(J2-Pad17)*%
X164719000Y-95885000D03*
%TO.P,V8,2*%
%TO.N,Net-(J2-Pad5)*%
X161671000Y-95885000D03*
%TD*%
%TO.P,V7,1*%
%TO.N,Net-(J2-Pad4)*%
X169799000Y-95885000D03*
%TO.P,V7,2*%
%TO.N,Net-(J2-Pad17)*%
X166751000Y-95885000D03*
%TD*%
D17*
%TO.P,R38,1*%
%TO.N,Net-(R38-Pad1)*%
X92520000Y-93980000D03*
%TO.P,R38,2*%
%TO.N,Net-(J2-Pad24)*%
X94170000Y-93980000D03*
%TD*%
D16*
%TO.P,U29,1,CATHODE*%
%TO.N,Net-(R36-Pad1)*%
X103189999Y-92100400D03*
%TO.P,U29,2,CATHODE*%
%TO.N,Net-(U11-Pad2)*%
X105090001Y-92100400D03*
%TO.P,U29,3,ANODE*%
%TO.N,Net-(J2-Pad23)*%
X105090001Y-89509600D03*
%TO.P,U29,4,NC*%
%TO.N,unconnected-(U29-Pad4)*%
X104140000Y-89509600D03*
%TO.P,U29,5,ANODE*%
%TO.N,Net-(U11-Pad2)*%
X103189999Y-89509600D03*
%TD*%
D20*
%TO.P,V10,1*%
%TO.N,Net-(J2-Pad18)*%
X154559000Y-95885000D03*
%TO.P,V10,2*%
%TO.N,Net-(J2-Pad6)*%
X151511000Y-95885000D03*
%TD*%
D25*
%TO.P,C2,1*%
%TO.N,GND*%
X108090000Y-134550000D03*
%TO.P,C2,2*%
%TO.N,Net-(A1-Pad27)*%
X106540000Y-134550000D03*
%TD*%
D17*
%TO.P,R4,1*%
%TO.N,Net-(R4-Pad1)*%
X196025000Y-93980000D03*
%TO.P,R4,2*%
%TO.N,Net-(J2-Pad1)*%
X197675000Y-93980000D03*
%TD*%
D16*
%TO.P,U30,1,CATHODE*%
%TO.N,Net-(R38-Pad1)*%
X92394999Y-92100400D03*
%TO.P,U30,2,CATHODE*%
%TO.N,Net-(U12-Pad7)*%
X94295001Y-92100400D03*
%TO.P,U30,3,ANODE*%
%TO.N,Net-(J2-Pad24)*%
X94295001Y-89509600D03*
%TO.P,U30,4,NC*%
%TO.N,unconnected-(U30-Pad4)*%
X93345000Y-89509600D03*
%TO.P,U30,5,ANODE*%
%TO.N,Net-(U12-Pad7)*%
X92394999Y-89509600D03*
%TD*%
%TO.P,U21,1,CATHODE*%
%TO.N,Net-(R28-Pad1)*%
X143829999Y-92100400D03*
%TO.P,U21,2,CATHODE*%
%TO.N,Net-(U21-Pad2)*%
X145730001Y-92100400D03*
%TO.P,U21,3,ANODE*%
%TO.N,Net-(J2-Pad19)*%
X145730001Y-89509600D03*
%TO.P,U21,4,NC*%
%TO.N,unconnected-(U21-Pad4)*%
X144780000Y-89509600D03*
%TO.P,U21,5,ANODE*%
%TO.N,Net-(U21-Pad2)*%
X143829999Y-89509600D03*
%TD*%
D17*
%TO.P,R39,1*%
%TO.N,Net-(R39-Pad1)*%
X88710000Y-93980000D03*
%TO.P,R39,2*%
%TO.N,Net-(J2-Pad12)*%
X90360000Y-93980000D03*
%TD*%
D16*
%TO.P,U20,1,CATHODE*%
%TO.N,Net-(R27-Pad1)*%
X147639999Y-92100400D03*
%TO.P,U20,2,CATHODE*%
%TO.N,Net-(U20-Pad2)*%
X149540001Y-92100400D03*
%TO.P,U20,3,ANODE*%
%TO.N,Net-(J2-Pad6)*%
X149540001Y-89509600D03*
%TO.P,U20,4,NC*%
%TO.N,unconnected-(U20-Pad4)*%
X148590000Y-89509600D03*
%TO.P,U20,5,ANODE*%
%TO.N,Net-(U20-Pad2)*%
X147639999Y-89509600D03*
%TD*%
D17*
%TO.P,R23,1*%
%TO.N,Net-(R23-Pad1)*%
X168085000Y-93980000D03*
%TO.P,R23,2*%
%TO.N,Net-(J2-Pad4)*%
X169735000Y-93980000D03*
%TD*%
D16*
%TO.P,U23,1,CATHODE*%
%TO.N,Net-(R30-Pad1)*%
X131129999Y-92100400D03*
%TO.P,U23,2,CATHODE*%
%TO.N,Net-(U10-Pad7)*%
X133030001Y-92100400D03*
%TO.P,U23,3,ANODE*%
%TO.N,Net-(J2-Pad20)*%
X133030001Y-89509600D03*
%TO.P,U23,4,NC*%
%TO.N,unconnected-(U23-Pad4)*%
X132080000Y-89509600D03*
%TO.P,U23,5,ANODE*%
%TO.N,Net-(U10-Pad7)*%
X131129999Y-89509600D03*
%TD*%
D12*
%TO.P,A1,1,D1/TX*%
%TO.N,unconnected-(A1-Pad1)*%
X75565000Y-95250000D03*
D26*
%TO.P,A1,2,D0/RX*%
%TO.N,unconnected-(A1-Pad2)*%
X73025000Y-95250000D03*
%TO.P,A1,3,~{RESET}*%
%TO.N,unconnected-(A1-Pad3)*%
X70485000Y-95250000D03*
%TO.P,A1,4,GND*%
%TO.N,GND*%
X67945000Y-95250000D03*
%TO.P,A1,5,D2*%
%TO.N,Net-(A1-Pad5)*%
X65405000Y-95250000D03*
%TO.P,A1,6,D3*%
%TO.N,Net-(A1-Pad6)*%
X62865000Y-95250000D03*
%TO.P,A1,7,D4*%
%TO.N,Net-(A1-Pad7)*%
X60325000Y-95250000D03*
%TO.P,A1,8,D5*%
%TO.N,Net-(A1-Pad8)*%
X57785000Y-95250000D03*
%TO.P,A1,9,D6*%
%TO.N,Net-(A1-Pad9)*%
X55245000Y-95250000D03*
%TO.P,A1,10,D7*%
%TO.N,Net-(A1-Pad10)*%
X52705000Y-95250000D03*
%TO.P,A1,11,D8*%
%TO.N,unconnected-(A1-Pad11)*%
X50165000Y-95250000D03*
%TO.P,A1,12,D9*%
%TO.N,unconnected-(A1-Pad12)*%
X47625000Y-95250000D03*
%TO.P,A1,13,D10*%
%TO.N,unconnected-(A1-Pad13)*%
X45085000Y-95250000D03*
%TO.P,A1,14,D11*%
%TO.N,Net-(A1-Pad14)*%
X42545000Y-95250000D03*
%TO.P,A1,15,D12*%
%TO.N,unconnected-(A1-Pad15)*%
X40005000Y-95250000D03*
%TO.P,A1,16,D13*%
%TO.N,unconnected-(A1-Pad16)*%
X40005000Y-110490000D03*
%TO.P,A1,17,3V3*%
%TO.N,unconnected-(A1-Pad17)*%
X42545000Y-110490000D03*
%TO.P,A1,18,AREF*%
%TO.N,unconnected-(A1-Pad18)*%
X45085000Y-110490000D03*
%TO.P,A1,19,A0*%
%TO.N,unconnected-(A1-Pad19)*%
X47625000Y-110490000D03*
%TO.P,A1,20,A1*%
%TO.N,unconnected-(A1-Pad20)*%
X50165000Y-110490000D03*
%TO.P,A1,21,A2*%
%TO.N,unconnected-(A1-Pad21)*%
X52705000Y-110490000D03*
%TO.P,A1,22,A3*%
%TO.N,Net-(A1-Pad22)*%
X55245000Y-110490000D03*
%TO.P,A1,23,A4*%
%TO.N,Net-(A1-Pad23)*%
X57785000Y-110490000D03*
%TO.P,A1,24,A5*%
%TO.N,Net-(A1-Pad24)*%
X60325000Y-110490000D03*
%TO.P,A1,25,A6*%
%TO.N,Net-(A1-Pad25)*%
X62865000Y-110490000D03*
%TO.P,A1,26,A7*%
%TO.N,Net-(A1-Pad26)*%
X65405000Y-110490000D03*
%TO.P,A1,27,+5V*%
%TO.N,Net-(A1-Pad27)*%
X67945000Y-110490000D03*
%TO.P,A1,28,~{RESET}*%
%TO.N,unconnected-(A1-Pad28)*%
X70485000Y-110490000D03*
%TO.P,A1,29,GND*%
%TO.N,GND*%
X73025000Y-110490000D03*
%TO.P,A1,30,VIN*%
%TO.N,Net-(A1-Pad30)*%
X75565000Y-110490000D03*
%TD*%
D16*
%TO.P,U6,1,CATHODE*%
%TO.N,Net-(R6-Pad1)*%
X188279999Y-92100400D03*
%TO.P,U6,2,CATHODE*%
%TO.N,Net-(U3-Pad4)*%
X190180001Y-92100400D03*
%TO.P,U6,3,ANODE*%
%TO.N,Net-(J2-Pad2)*%
X190180001Y-89509600D03*
%TO.P,U6,4,NC*%
%TO.N,unconnected-(U6-Pad4)*%
X189230000Y-89509600D03*
%TO.P,U6,5,ANODE*%
%TO.N,Net-(U3-Pad4)*%
X188279999Y-89509600D03*
%TD*%
%TO.P,U27,1,CATHODE*%
%TO.N,Net-(R34-Pad1)*%
X110809999Y-92100400D03*
%TO.P,U27,2,CATHODE*%
%TO.N,Net-(U11-Pad7)*%
X112710001Y-92100400D03*
%TO.P,U27,3,ANODE*%
%TO.N,Net-(J2-Pad22)*%
X112710001Y-89509600D03*
%TO.P,U27,4,NC*%
%TO.N,unconnected-(U27-Pad4)*%
X111760000Y-89509600D03*
%TO.P,U27,5,ANODE*%
%TO.N,Net-(U11-Pad7)*%
X110809999Y-89509600D03*
%TD*%
D21*
%TO.P,R14,1*%
%TO.N,Net-(A1-Pad27)*%
X95440000Y-78105000D03*
%TO.P,R14,2*%
%TO.N,Net-(A1-Pad5)*%
X93790000Y-78105000D03*
%TD*%
D17*
%TO.P,R21,1*%
%TO.N,Net-(R21-Pad1)*%
X175705000Y-93980000D03*
%TO.P,R21,2*%
%TO.N,Net-(J2-Pad3)*%
X177355000Y-93980000D03*
%TD*%
D20*
%TO.P,V16,1*%
%TO.N,Net-(J2-Pad21)*%
X124079000Y-95885000D03*
%TO.P,V16,2*%
%TO.N,Net-(J2-Pad9)*%
X121031000Y-95885000D03*
%TD*%
D17*
%TO.P,R34,1*%
%TO.N,Net-(R34-Pad1)*%
X110935000Y-93980000D03*
%TO.P,R34,2*%
%TO.N,Net-(J2-Pad22)*%
X112585000Y-93980000D03*
%TD*%
%TO.P,R32,1*%
%TO.N,Net-(R32-Pad1)*%
X123635000Y-93980000D03*
%TO.P,R32,2*%
%TO.N,Net-(J2-Pad21)*%
X125285000Y-93980000D03*
%TD*%
D18*
%TO.P,U9,1,~{SLEEP}*%
%TO.N,Net-(A1-Pad22)*%
X146950000Y-86047500D03*
%TO.P,U9,2,OUT1*%
%TO.N,Net-(U21-Pad2)*%
X147600000Y-86047500D03*
%TO.P,U9,3,ISEN12*%
%TO.N,Net-(R16-Pad2)*%
X148250000Y-86047500D03*
%TO.P,U9,4,OUT2*%
%TO.N,Net-(U20-Pad2)*%
X148900000Y-86047500D03*
%TO.P,U9,5,OUT4*%
%TO.N,Net-(U18-Pad2)*%
X149550000Y-86047500D03*
%TO.P,U9,6,ISEN34*%
%TO.N,Net-(R16-Pad2)*%
X150200000Y-86047500D03*
%TO.P,U9,7,OUT3*%
%TO.N,Net-(U19-Pad2)*%
X150850000Y-86047500D03*
%TO.P,U9,8,~{FAULT}*%
%TO.N,Net-(A1-Pad8)*%
X151500000Y-86047500D03*
%TO.P,U9,9,IN3*%
%TO.N,unconnected-(U9-Pad9)*%
X151500000Y-80322500D03*
%TO.P,U9,10,IN4*%
%TO.N,unconnected-(U9-Pad10)*%
X150850000Y-80322500D03*
%TO.P,U9,11,SCL*%
%TO.N,Net-(A1-Pad24)*%
X150200000Y-80322500D03*
%TO.P,U9,12,VM*%
%TO.N,Net-(C1-Pad2)*%
X149550000Y-80322500D03*
%TO.P,U9,13,GND*%
%TO.N,GND*%
X148900000Y-80322500D03*
%TO.P,U9,14,SDA*%
%TO.N,Net-(A1-Pad23)*%
X148250000Y-80322500D03*
%TO.P,U9,15,IN2*%
%TO.N,unconnected-(U9-Pad15)*%
X147600000Y-80322500D03*
%TO.P,U9,16,IN1*%
%TO.N,unconnected-(U9-Pad16)*%
X146950000Y-80322500D03*
%TD*%
D20*
%TO.P,V11,1*%
%TO.N,Net-(J2-Pad6)*%
X149479000Y-95885000D03*
%TO.P,V11,2*%
%TO.N,Net-(J2-Pad19)*%
X146431000Y-95885000D03*
%TD*%
D24*
%TO.P,R7,1*%
%TO.N,Net-(R7-Pad1)*%
X65405000Y-120840000D03*
%TO.P,R7,2*%
%TO.N,Net-(A1-Pad26)*%
X65405000Y-119190000D03*
%TD*%
D17*
%TO.P,R25,1*%
%TO.N,Net-(R25-Pad1)*%
X155385000Y-93980000D03*
%TO.P,R25,2*%
%TO.N,Net-(J2-Pad5)*%
X157035000Y-93980000D03*
%TD*%
D21*
%TO.P,R13,1*%
%TO.N,Net-(A1-Pad27)*%
X113855000Y-78105000D03*
%TO.P,R13,2*%
%TO.N,Net-(A1-Pad6)*%
X112205000Y-78105000D03*
%TD*%
D16*
%TO.P,U22,1,CATHODE*%
%TO.N,Net-(R29-Pad1)*%
X134939999Y-92100400D03*
%TO.P,U22,2,CATHODE*%
%TO.N,Net-(U10-Pad5)*%
X136840001Y-92100400D03*
%TO.P,U22,3,ANODE*%
%TO.N,Net-(J2-Pad7)*%
X136840001Y-89509600D03*
%TO.P,U22,4,NC*%
%TO.N,unconnected-(U22-Pad4)*%
X135890000Y-89509600D03*
%TO.P,U22,5,ANODE*%
%TO.N,Net-(U10-Pad5)*%
X134939999Y-89509600D03*
%TD*%
%TO.P,U14,1,CATHODE*%
%TO.N,Net-(R21-Pad1)*%
X175579999Y-92100400D03*
%TO.P,U14,2,CATHODE*%
%TO.N,Net-(U14-Pad2)*%
X177480001Y-92100400D03*
%TO.P,U14,3,ANODE*%
%TO.N,Net-(J2-Pad3)*%
X177480001Y-89509600D03*
%TO.P,U14,4,NC*%
%TO.N,unconnected-(U14-Pad4)*%
X176530000Y-89509600D03*
%TO.P,U14,5,ANODE*%
%TO.N,Net-(U14-Pad2)*%
X175579999Y-89509600D03*
%TD*%
%TO.P,U28,1,CATHODE*%
%TO.N,Net-(R35-Pad1)*%
X106999999Y-92100400D03*
%TO.P,U28,2,CATHODE*%
%TO.N,Net-(U11-Pad4)*%
X108900001Y-92100400D03*
%TO.P,U28,3,ANODE*%
%TO.N,Net-(J2-Pad10)*%
X108900001Y-89509600D03*
%TO.P,U28,4,NC*%
%TO.N,unconnected-(U28-Pad4)*%
X107950000Y-89509600D03*
%TO.P,U28,5,ANODE*%
%TO.N,Net-(U11-Pad4)*%
X106999999Y-89509600D03*
%TD*%
D17*
%TO.P,R26,1*%
%TO.N,Net-(R26-Pad1)*%
X151575000Y-93980000D03*
%TO.P,R26,2*%
%TO.N,Net-(J2-Pad18)*%
X153225000Y-93980000D03*
%TD*%
D16*
%TO.P,U2,1,CATHODE*%
%TO.N,Net-(R37-Pad1)*%
X96204999Y-92100400D03*
%TO.P,U2,2,CATHODE*%
%TO.N,Net-(U12-Pad5)*%
X98105001Y-92100400D03*
%TO.P,U2,3,ANODE*%
%TO.N,Net-(J2-Pad11)*%
X98105001Y-89509600D03*
%TO.P,U2,4,NC*%
%TO.N,unconnected-(U2-Pad4)*%
X97155000Y-89509600D03*
%TO.P,U2,5,ANODE*%
%TO.N,Net-(U12-Pad5)*%
X96204999Y-89509600D03*
%TD*%
D20*
%TO.P,V19,1*%
%TO.N,Net-(J2-Pad10)*%
X108839000Y-95885000D03*
%TO.P,V19,2*%
%TO.N,Net-(J2-Pad23)*%
X105791000Y-95885000D03*
%TD*%
D16*
%TO.P,U17,1,CATHODE*%
%TO.N,Net-(R24-Pad1)*%
X164149999Y-92100400D03*
%TO.P,U17,2,CATHODE*%
%TO.N,Net-(U17-Pad2)*%
X166050001Y-92100400D03*
%TO.P,U17,3,ANODE*%
%TO.N,Net-(J2-Pad17)*%
X166050001Y-89509600D03*
%TO.P,U17,4,NC*%
%TO.N,unconnected-(U17-Pad4)*%
X165100000Y-89509600D03*
%TO.P,U17,5,ANODE*%
%TO.N,Net-(U17-Pad2)*%
X164149999Y-89509600D03*
%TD*%
D27*
%TO.P,SW1,1,1*%
%TO.N,Net-(A1-Pad25)*%
X74930000Y-129563226D03*
%TO.P,SW1,2,2*%
%TO.N,Net-(R8-Pad1)*%
X69850000Y-129563226D03*
%TO.P,SW1,3,3*%
%TO.N,Net-(J3-Pad1)*%
X64770000Y-129563226D03*
%TO.P,SW1,4*%
%TO.N,N/C*%
X77470000Y-132103226D03*
%TO.P,SW1,5*%
X62230000Y-132103226D03*
%TO.P,SW1,6*%
X77470000Y-127023226D03*
%TO.P,SW1,7*%
X62230000Y-127023226D03*
%TD*%
D18*
%TO.P,U12,1,~{SLEEP}*%
%TO.N,Net-(A1-Pad22)*%
X87895000Y-86047500D03*
%TO.P,U12,2,OUT1*%
%TO.N,Net-(U12-Pad2)*%
X88545000Y-86047500D03*
%TO.P,U12,3,ISEN12*%
%TO.N,Net-(R19-Pad2)*%
X89195000Y-86047500D03*
%TO.P,U12,4,OUT2*%
%TO.N,Net-(U12-Pad4)*%
X89845000Y-86047500D03*
%TO.P,U12,5,OUT4*%
%TO.N,Net-(U12-Pad5)*%
X90495000Y-86047500D03*
%TO.P,U12,6,ISEN34*%
%TO.N,Net-(R19-Pad2)*%
X91145000Y-86047500D03*
%TO.P,U12,7,OUT3*%
%TO.N,Net-(U12-Pad7)*%
X91795000Y-86047500D03*
%TO.P,U12,8,~{FAULT}*%
%TO.N,Net-(A1-Pad5)*%
X92445000Y-86047500D03*
%TO.P,U12,9,IN3*%
%TO.N,unconnected-(U12-Pad9)*%
X92445000Y-80322500D03*
%TO.P,U12,10,IN4*%
%TO.N,unconnected-(U12-Pad10)*%
X91795000Y-80322500D03*
%TO.P,U12,11,SCL*%
%TO.N,Net-(A1-Pad24)*%
X91145000Y-80322500D03*
%TO.P,U12,12,VM*%
%TO.N,Net-(C1-Pad2)*%
X90495000Y-80322500D03*
%TO.P,U12,13,GND*%
%TO.N,GND*%
X89845000Y-80322500D03*
%TO.P,U12,14,SDA*%
%TO.N,Net-(A1-Pad23)*%
X89195000Y-80322500D03*
%TO.P,U12,15,IN2*%
%TO.N,unconnected-(U12-Pad15)*%
X88545000Y-80322500D03*
%TO.P,U12,16,IN1*%
%TO.N,unconnected-(U12-Pad16)*%
X87895000Y-80322500D03*
%TD*%
D17*
%TO.P,R6,1*%
%TO.N,Net-(R6-Pad1)*%
X188405000Y-93980000D03*
%TO.P,R6,2*%
%TO.N,Net-(J2-Pad2)*%
X190055000Y-93980000D03*
%TD*%
D16*
%TO.P,U5,1,CATHODE*%
%TO.N,Net-(R5-Pad1)*%
X192089999Y-92100400D03*
%TO.P,U5,2,CATHODE*%
%TO.N,Net-(U3-Pad7)*%
X193990001Y-92100400D03*
%TO.P,U5,3,ANODE*%
%TO.N,Net-(J2-Pad14)*%
X193990001Y-89509600D03*
%TO.P,U5,4,NC*%
%TO.N,unconnected-(U5-Pad4)*%
X193040000Y-89509600D03*
%TO.P,U5,5,ANODE*%
%TO.N,Net-(U3-Pad7)*%
X192089999Y-89509600D03*
%TD*%
D20*
%TO.P,V17,1*%
%TO.N,Net-(J2-Pad9)*%
X118999000Y-95885000D03*
%TO.P,V17,2*%
%TO.N,Net-(J2-Pad22)*%
X115951000Y-95885000D03*
%TD*%
D18*
%TO.P,U11,1,~{SLEEP}*%
%TO.N,Net-(A1-Pad22)*%
X106310000Y-86047500D03*
%TO.P,U11,2,OUT1*%
%TO.N,Net-(U11-Pad2)*%
X106960000Y-86047500D03*
%TO.P,U11,3,ISEN12*%
%TO.N,Net-(R18-Pad2)*%
X107610000Y-86047500D03*
%TO.P,U11,4,OUT2*%
%TO.N,Net-(U11-Pad4)*%
X108260000Y-86047500D03*
%TO.P,U11,5,OUT4*%
%TO.N,Net-(U11-Pad5)*%
X108910000Y-86047500D03*
%TO.P,U11,6,ISEN34*%
%TO.N,Net-(R18-Pad2)*%
X109560000Y-86047500D03*
%TO.P,U11,7,OUT3*%
%TO.N,Net-(U11-Pad7)*%
X110210000Y-86047500D03*
%TO.P,U11,8,~{FAULT}*%
%TO.N,Net-(A1-Pad6)*%
X110860000Y-86047500D03*
%TO.P,U11,9,IN3*%
%TO.N,unconnected-(U11-Pad9)*%
X110860000Y-80322500D03*
%TO.P,U11,10,IN4*%
%TO.N,unconnected-(U11-Pad10)*%
X110210000Y-80322500D03*
%TO.P,U11,11,SCL*%
%TO.N,Net-(A1-Pad24)*%
X109560000Y-80322500D03*
%TO.P,U11,12,VM*%
%TO.N,Net-(C1-Pad2)*%
X108910000Y-80322500D03*
%TO.P,U11,13,GND*%
%TO.N,GND*%
X108260000Y-80322500D03*
%TO.P,U11,14,SDA*%
%TO.N,Net-(A1-Pad23)*%
X107610000Y-80322500D03*
%TO.P,U11,15,IN2*%
%TO.N,unconnected-(U11-Pad15)*%
X106960000Y-80322500D03*
%TO.P,U11,16,IN1*%
%TO.N,unconnected-(U11-Pad16)*%
X106310000Y-80322500D03*
%TD*%
D20*
%TO.P,V21,1*%
%TO.N,Net-(J2-Pad11)*%
X98679000Y-95885000D03*
%TO.P,V21,2*%
%TO.N,Net-(J2-Pad24)*%
X95631000Y-95885000D03*
%TD*%
D19*
%TO.P,C4,1*%
%TO.N,GND*%
X154305000Y-81420000D03*
%TO.P,C4,2*%
%TO.N,Net-(C1-Pad2)*%
X154305000Y-79870000D03*
%TD*%
D21*
%TO.P,R9,1*%
%TO.N,Net-(A1-Pad27)*%
X195135000Y-78105000D03*
%TO.P,R9,2*%
%TO.N,Net-(A1-Pad10)*%
X193485000Y-78105000D03*
%TD*%
D16*
%TO.P,U16,1,CATHODE*%
%TO.N,Net-(R23-Pad1)*%
X167959999Y-92100400D03*
%TO.P,U16,2,CATHODE*%
%TO.N,Net-(U16-Pad2)*%
X169860001Y-92100400D03*
%TO.P,U16,3,ANODE*%
%TO.N,Net-(J2-Pad4)*%
X169860001Y-89509600D03*
%TO.P,U16,4,NC*%
%TO.N,unconnected-(U16-Pad4)*%
X168910000Y-89509600D03*
%TO.P,U16,5,ANODE*%
%TO.N,Net-(U16-Pad2)*%
X167959999Y-89509600D03*
%TD*%
D20*
%TO.P,V22,1*%
%TO.N,Net-(J2-Pad24)*%
X93599000Y-95885000D03*
%TO.P,V22,2*%
%TO.N,Net-(J2-Pad12)*%
X90551000Y-95885000D03*
%TD*%
D28*
%TO.P,J3,1,In*%
%TO.N,Net-(J3-Pad1)*%
X46990000Y-129563226D03*
D29*
%TO.P,J3,2,Ext*%
%TO.N,GND*%
X41910000Y-124483226D03*
D28*
X46990000Y-132103226D03*
D29*
X41910000Y-134643226D03*
%TD*%
D15*
%TO.P,R16,1*%
%TO.N,GND*%
X154305000Y-85090000D03*
%TO.P,R16,2*%
%TO.N,Net-(R16-Pad2)*%
X154305000Y-86740000D03*
%TD*%
D30*
%TO.P,U7,1,REF*%
%TO.N,GND*%
X107330001Y-137235001D03*
%TO.P,U7,2,GND*%
X106680000Y-137235001D03*
%TO.P,U7,3,V+*%
%TO.N,Net-(A1-Pad27)*%
X106030001Y-137235001D03*
%TO.P,U7,4,IN+*%
%TO.N,Net-(R8-Pad1)*%
X106030001Y-139485002D03*
%TO.P,U7,5,IN-*%
%TO.N,Net-(C1-Pad2)*%
X106680000Y-139485002D03*
%TO.P,U7,6,OUT*%
%TO.N,Net-(R7-Pad1)*%
X107330001Y-139485002D03*
%TD*%
D15*
%TO.P,R17,1*%
%TO.N,GND*%
X133985000Y-85090000D03*
%TO.P,R17,2*%
%TO.N,Net-(R17-Pad2)*%
X133985000Y-86740000D03*
%TD*%
D20*
%TO.P,V9,1*%
%TO.N,Net-(J2-Pad5)*%
X159639000Y-95885000D03*
%TO.P,V9,2*%
%TO.N,Net-(J2-Pad18)*%
X156591000Y-95885000D03*
%TD*%
D17*
%TO.P,R31,1*%
%TO.N,Net-(R31-Pad1)*%
X127445000Y-93980000D03*
%TO.P,R31,2*%
%TO.N,Net-(J2-Pad8)*%
X129095000Y-93980000D03*
%TD*%
%TO.P,R27,1*%
%TO.N,Net-(R27-Pad1)*%
X147765000Y-93980000D03*
%TO.P,R27,2*%
%TO.N,Net-(J2-Pad6)*%
X149415000Y-93980000D03*
%TD*%
D19*
%TO.P,C1,1*%
%TO.N,GND*%
X194945000Y-81420000D03*
%TO.P,C1,2*%
%TO.N,Net-(C1-Pad2)*%
X194945000Y-79870000D03*
%TD*%
D16*
%TO.P,U25,1,CATHODE*%
%TO.N,Net-(R32-Pad1)*%
X123509999Y-92100400D03*
%TO.P,U25,2,CATHODE*%
%TO.N,Net-(U10-Pad2)*%
X125410001Y-92100400D03*
%TO.P,U25,3,ANODE*%
%TO.N,Net-(J2-Pad21)*%
X125410001Y-89509600D03*
%TO.P,U25,4,NC*%
%TO.N,unconnected-(U25-Pad4)*%
X124460000Y-89509600D03*
%TO.P,U25,5,ANODE*%
%TO.N,Net-(U10-Pad2)*%
X123509999Y-89509600D03*
%TD*%
D17*
%TO.P,R33,1*%
%TO.N,Net-(R33-Pad1)*%
X114745000Y-93980000D03*
%TO.P,R33,2*%
%TO.N,Net-(J2-Pad9)*%
X116395000Y-93980000D03*
%TD*%
D20*
%TO.P,V5,1*%
%TO.N,Net-(J2-Pad3)*%
X179959000Y-95885000D03*
%TO.P,V5,2*%
%TO.N,Net-(J2-Pad16)*%
X176911000Y-95885000D03*
%TD*%
%TO.P,V4,1*%
%TO.N,Net-(J2-Pad15)*%
X185039000Y-95885000D03*
%TO.P,V4,2*%
%TO.N,Net-(J2-Pad3)*%
X181991000Y-95885000D03*
%TD*%
D16*
%TO.P,U18,1,CATHODE*%
%TO.N,Net-(R25-Pad1)*%
X155259999Y-92100400D03*
%TO.P,U18,2,CATHODE*%
%TO.N,Net-(U18-Pad2)*%
X157160001Y-92100400D03*
%TO.P,U18,3,ANODE*%
%TO.N,Net-(J2-Pad5)*%
X157160001Y-89509600D03*
%TO.P,U18,4,NC*%
%TO.N,unconnected-(U18-Pad4)*%
X156210000Y-89509600D03*
%TO.P,U18,5,ANODE*%
%TO.N,Net-(U18-Pad2)*%
X155259999Y-89509600D03*
%TD*%
D19*
%TO.P,C6,1*%
%TO.N,GND*%
X133985000Y-81420000D03*
%TO.P,C6,2*%
%TO.N,Net-(C1-Pad2)*%
X133985000Y-79870000D03*
%TD*%
D24*
%TO.P,R41,1*%
%TO.N,Net-(C9-Pad1)*%
X99695000Y-135445000D03*
%TO.P,R41,2*%
%TO.N,Net-(A1-Pad14)*%
X99695000Y-133795000D03*
%TD*%
D31*
%TO.P,J1,1,In*%
%TO.N,Net-(A1-Pad30)*%
X35140000Y-80645000D03*
D32*
%TO.P,J1,2,Ext*%
%TO.N,GND*%
X41140000Y-80645000D03*
D33*
%TO.P,J1,MP*%
%TO.N,N/C*%
X42140000Y-76145000D03*
X42140000Y-85145000D03*
%TD*%
D17*
%TO.P,R28,1*%
%TO.N,Net-(R28-Pad1)*%
X143955000Y-93980000D03*
%TO.P,R28,2*%
%TO.N,Net-(J2-Pad19)*%
X145605000Y-93980000D03*
%TD*%
%TO.P,R30,1*%
%TO.N,Net-(R30-Pad1)*%
X131255000Y-93980000D03*
%TO.P,R30,2*%
%TO.N,Net-(J2-Pad20)*%
X132905000Y-93980000D03*
%TD*%
%TO.P,R5,1*%
%TO.N,Net-(R5-Pad1)*%
X192215000Y-93980000D03*
%TO.P,R5,2*%
%TO.N,Net-(J2-Pad14)*%
X193865000Y-93980000D03*
%TD*%
D34*
%TO.N,GND*%
X93980000Y-136595000D03*
X113665000Y-83185000D03*
X194945000Y-83185000D03*
X174625000Y-83185000D03*
X133985000Y-83185000D03*
X95250000Y-83185000D03*
X154305000Y-83185000D03*
X107950000Y-135820000D03*
%TO.N,Net-(A1-Pad5)*%
X93345000Y-85725000D03*
X93980000Y-79375000D03*
%TO.N,Net-(A1-Pad6)*%
X112395000Y-79375000D03*
X112070461Y-86049539D03*
%TO.N,Net-(A1-Pad7)*%
X132390461Y-86049539D03*
X132715000Y-79375000D03*
%TO.N,Net-(A1-Pad8)*%
X152710461Y-86049539D03*
X153035000Y-79375000D03*
%TO.N,Net-(A1-Pad9)*%
X173355000Y-79375000D03*
X173030461Y-86049539D03*
%TO.N,Net-(A1-Pad22)*%
X126365000Y-87630000D03*
X87630000Y-87630000D03*
X86360000Y-103505000D03*
X106045000Y-87630000D03*
X146685000Y-87630000D03*
X187325000Y-87630000D03*
X167005000Y-87630000D03*
%TO.N,Net-(A1-Pad23)*%
X188595000Y-75565000D03*
X88900000Y-75565000D03*
X168275000Y-75565000D03*
X82550000Y-104775000D03*
X127635000Y-75565000D03*
X147955000Y-75565000D03*
X107315000Y-75565000D03*
%TO.N,Net-(A1-Pad24)*%
X83820000Y-104775000D03*
X91440000Y-76835000D03*
X150495000Y-76835000D03*
X191135000Y-76835000D03*
X130175000Y-76835000D03*
X170815000Y-76835000D03*
X109855000Y-76835000D03*
%TO.N,Net-(A1-Pad25)*%
X86336774Y-129563226D03*
X62865000Y-115570000D03*
X88900000Y-129470000D03*
X83185000Y-121285000D03*
%TO.N,Net-(C1-Pad2)*%
X189775500Y-78105000D03*
X128905000Y-78105000D03*
X149225000Y-78105000D03*
X169545000Y-78105000D03*
X90170000Y-78105000D03*
X85090000Y-104775000D03*
X108585000Y-78105000D03*
%TO.N,Net-(A1-Pad14)*%
X99060000Y-125095000D03*
X46990000Y-115570000D03*
%TO.N,Net-(U14-Pad2)*%
X170445500Y-88175500D03*
X172720000Y-88175500D03*
%TO.N,Net-(U18-Pad2)*%
X150125500Y-88175500D03*
X152400000Y-88175500D03*
%TO.N,Net-(A1-Pad27)*%
X193675000Y-74295000D03*
X102235000Y-137160000D03*
X63500000Y-120015000D03*
X132715000Y-74295000D03*
X104775000Y-134550000D03*
X173355000Y-74295000D03*
X153035000Y-74295000D03*
X93980000Y-74295000D03*
X67945000Y-120015000D03*
X81280000Y-107315000D03*
X112395000Y-74295000D03*
%TO.N,Net-(R8-Pad1)*%
X100965000Y-138995000D03*
%TO.N,Net-(R7-Pad1)*%
X109220000Y-139630000D03*
X74930000Y-123190000D03*
%TO.N,Net-(A1-Pad10)*%
X193385200Y-86014800D03*
X193675000Y-79375000D03*
%TO.N,Net-(U3-Pad5)*%
X190765500Y-88175500D03*
X193040000Y-88175500D03*
%TO.N,Net-(U10-Pad5)*%
X129805500Y-88175500D03*
X132080000Y-88175500D03*
%TO.N,Net-(U11-Pad5)*%
X111760000Y-88175500D03*
X109485500Y-88175500D03*
%TO.N,Net-(U12-Pad5)*%
X93345000Y-88175500D03*
X90805000Y-88175500D03*
%TD*%
D35*
%TO.N,GND*%
X95250000Y-135325000D02*
X93980000Y-136595000D01*
X95570000Y-135325000D02*
X95250000Y-135325000D01*
%TO.N,Net-(C9-Pad1)*%
X97590000Y-135445000D02*
X99695000Y-135445000D01*
X93980000Y-131835000D02*
X97590000Y-135445000D01*
X93586300Y-127311300D02*
X93980000Y-127705000D01*
X90487500Y-127311300D02*
X93586300Y-127311300D01*
X93980000Y-127705000D02*
X93980000Y-131835000D01*
%TO.N,GND*%
X113665000Y-81420000D02*
X113665000Y-83185000D01*
X108260000Y-81597500D02*
X109847500Y-83185000D01*
D36*
X106680000Y-137235001D02*
X106680000Y-136455000D01*
X107950000Y-135820000D02*
X107950000Y-135045000D01*
X107330001Y-137235001D02*
X107330001Y-136439999D01*
D35*
X91440000Y-83185000D02*
X89845000Y-81590000D01*
X194945000Y-83185000D02*
X191135000Y-83185000D01*
X154305000Y-84900000D02*
X154305000Y-83185000D01*
X95250000Y-81420000D02*
X95250000Y-83185000D01*
X133985000Y-84900000D02*
X133985000Y-83185000D01*
D36*
X106680000Y-136455000D02*
X107315000Y-136455000D01*
D35*
X174625000Y-81420000D02*
X174625000Y-83185000D01*
X154305000Y-81420000D02*
X154305000Y-83185000D01*
X194945000Y-84900000D02*
X194945000Y-83185000D01*
X150487500Y-83185000D02*
X154305000Y-83185000D01*
X148900000Y-80322500D02*
X148900000Y-81597500D01*
X170807500Y-83185000D02*
X174625000Y-83185000D01*
X109847500Y-83185000D02*
X113665000Y-83185000D01*
X108260000Y-80322500D02*
X108260000Y-81597500D01*
X174625000Y-84900000D02*
X174625000Y-83185000D01*
X95250000Y-84900000D02*
X95250000Y-83185000D01*
X89845000Y-81590000D02*
X89845000Y-80322500D01*
X133985000Y-81420000D02*
X133985000Y-83185000D01*
X169220000Y-80322500D02*
X169220000Y-81597500D01*
D36*
X107315000Y-136455000D02*
X107950000Y-135820000D01*
D35*
X189540000Y-81590000D02*
X191135000Y-83185000D01*
X128580000Y-81597500D02*
X130167500Y-83185000D01*
X92850000Y-135325000D02*
X92850000Y-135465000D01*
X148900000Y-81597500D02*
X150487500Y-83185000D01*
X92850000Y-135465000D02*
X93980000Y-136595000D01*
X189540000Y-80322500D02*
X189540000Y-81590000D01*
X95250000Y-83185000D02*
X91440000Y-83185000D01*
X169220000Y-81597500D02*
X170807500Y-83185000D01*
X194945000Y-81420000D02*
X194945000Y-83185000D01*
X130167500Y-83185000D02*
X133985000Y-83185000D01*
X128580000Y-80322500D02*
X128580000Y-81597500D01*
X113665000Y-84900000D02*
X113665000Y-83185000D01*
%TO.N,Net-(A1-Pad5)*%
X65405000Y-89568226D02*
X65405000Y-95250000D01*
X93790000Y-78105000D02*
X93790000Y-76010000D01*
X93790000Y-76010000D02*
X91440000Y-73660000D01*
X93790000Y-78105000D02*
X93790000Y-79185000D01*
X93790000Y-78105000D02*
X93980000Y-78295000D01*
X91440000Y-73660000D02*
X81313226Y-73660000D01*
X93790000Y-78105000D02*
X93765000Y-78130000D01*
X93022500Y-86047500D02*
X92445000Y-86047500D01*
X93345000Y-85725000D02*
X93022500Y-86047500D01*
X81313226Y-73660000D02*
X65405000Y-89568226D01*
X93790000Y-79185000D02*
X93980000Y-79375000D01*
%TO.N,Net-(A1-Pad6)*%
X79408226Y-73025000D02*
X109855000Y-73025000D01*
X110862039Y-86049539D02*
X110860000Y-86047500D01*
X62865000Y-89568226D02*
X79408226Y-73025000D01*
X112075000Y-79055000D02*
X112395000Y-79375000D01*
X109855000Y-73025000D02*
X112075000Y-75245000D01*
X112075000Y-75245000D02*
X112075000Y-79055000D01*
X62865000Y-95250000D02*
X62865000Y-89568226D01*
X112070461Y-86049539D02*
X110862039Y-86049539D01*
%TO.N,Net-(A1-Pad7)*%
X132437500Y-78105000D02*
X132437500Y-79097500D01*
X60325000Y-95250000D02*
X60325000Y-89568226D01*
X60325000Y-89568226D02*
X77318226Y-72575000D01*
X131182039Y-86049539D02*
X131180000Y-86047500D01*
X132437500Y-79097500D02*
X132715000Y-79375000D01*
X129595000Y-72575000D02*
X132395000Y-75375000D01*
X77318226Y-72575000D02*
X129595000Y-72575000D01*
X132395000Y-75375000D02*
X132395000Y-78105000D01*
X132390461Y-86049539D02*
X131182039Y-86049539D01*
%TO.N,Net-(A1-Pad8)*%
X57785000Y-89568226D02*
X75228226Y-72125000D01*
X152715000Y-78105000D02*
X152715000Y-79055000D01*
X149275000Y-72125000D02*
X152715000Y-75565000D01*
X152715000Y-79055000D02*
X153035000Y-79375000D01*
X57785000Y-95250000D02*
X57785000Y-89568226D01*
X151502039Y-86049539D02*
X151500000Y-86047500D01*
X152715000Y-75565000D02*
X152715000Y-78105000D01*
X75228226Y-72125000D02*
X149275000Y-72125000D01*
X152710461Y-86049539D02*
X151502039Y-86049539D01*
%TO.N,Net-(A1-Pad9)*%
X55245000Y-95250000D02*
X55245000Y-89568226D01*
X169431774Y-71675000D02*
X173035000Y-75278226D01*
X55245000Y-89568226D02*
X73138226Y-71675000D01*
X173030461Y-86049539D02*
X171822039Y-86049539D01*
X173035000Y-79055000D02*
X173355000Y-79375000D01*
X73138226Y-71675000D02*
X169431774Y-71675000D01*
X171822039Y-86049539D02*
X171820000Y-86047500D01*
X173035000Y-75278226D02*
X173035000Y-78105000D01*
X173035000Y-78105000D02*
X173035000Y-79055000D01*
%TO.N,Net-(A1-Pad22)*%
X146950000Y-86095000D02*
X146685000Y-86360000D01*
X62230000Y-103505000D02*
X55245000Y-110490000D01*
X87630000Y-87630000D02*
X87630000Y-86312500D01*
X106045000Y-86360000D02*
X106045000Y-87630000D01*
X146685000Y-86360000D02*
X146685000Y-87630000D01*
X126630000Y-86095000D02*
X126365000Y-86360000D01*
X106310000Y-86095000D02*
X106045000Y-86360000D01*
X187325000Y-86312500D02*
X187590000Y-86047500D01*
X86360000Y-103505000D02*
X62230000Y-103505000D01*
X167005000Y-86360000D02*
X167005000Y-87630000D01*
X126365000Y-86360000D02*
X126365000Y-87630000D01*
X126630000Y-86047500D02*
X126630000Y-86095000D01*
X187325000Y-87630000D02*
X187325000Y-86312500D01*
X167270000Y-86095000D02*
X167005000Y-86360000D01*
X167270000Y-86047500D02*
X167270000Y-86095000D01*
X87630000Y-86312500D02*
X87895000Y-86047500D01*
X146950000Y-86047500D02*
X146950000Y-86095000D01*
X106310000Y-86047500D02*
X106310000Y-86095000D01*
%TO.N,Net-(A1-Pad23)*%
X88900000Y-78740000D02*
X88900000Y-75565000D01*
X147955000Y-78740000D02*
X147955000Y-75565000D01*
X188890000Y-79035000D02*
X188595000Y-78740000D01*
X89195000Y-80322500D02*
X89195000Y-79035000D01*
X148250000Y-79035000D02*
X147955000Y-78740000D01*
X148250000Y-80322500D02*
X148250000Y-79035000D01*
X63500000Y-104775000D02*
X82550000Y-104775000D01*
X188890000Y-80322500D02*
X188890000Y-79035000D01*
X107315000Y-78740000D02*
X107315000Y-75565000D01*
X168570000Y-80322500D02*
X168570000Y-79035000D01*
X127930000Y-80322500D02*
X127930000Y-79035000D01*
X127635000Y-78740000D02*
X127635000Y-75565000D01*
X107610000Y-80322500D02*
X107610000Y-79035000D01*
X107610000Y-79035000D02*
X107315000Y-78740000D01*
X127930000Y-79035000D02*
X127635000Y-78740000D01*
X168275000Y-78740000D02*
X168275000Y-75565000D01*
X57785000Y-110490000D02*
X63500000Y-104775000D01*
X89195000Y-79035000D02*
X88900000Y-78740000D01*
X188595000Y-78740000D02*
X188595000Y-75565000D01*
X57785000Y-110490000D02*
X57785000Y-118555000D01*
X168570000Y-79035000D02*
X168275000Y-78740000D01*
%TO.N,Net-(A1-Pad24)*%
X170520000Y-80322500D02*
X170520000Y-79035000D01*
X64770000Y-106045000D02*
X83185000Y-106045000D01*
X60325000Y-110490000D02*
X60325000Y-118555000D01*
X150495000Y-78740000D02*
X150495000Y-76835000D01*
X129880000Y-79035000D02*
X130175000Y-78740000D01*
X83185000Y-106045000D02*
X83820000Y-105410000D01*
X129880000Y-80322500D02*
X129880000Y-79035000D01*
X190840000Y-79080000D02*
X190840000Y-80322500D01*
X60325000Y-110490000D02*
X64770000Y-106045000D01*
X191135000Y-78785000D02*
X190840000Y-79080000D01*
X191135000Y-76835000D02*
X191135000Y-78785000D01*
X170520000Y-79035000D02*
X170815000Y-78740000D01*
X130175000Y-78740000D02*
X130175000Y-76835000D01*
X109560000Y-80322500D02*
X109560000Y-79035000D01*
X83820000Y-105410000D02*
X83820000Y-104775000D01*
X109855000Y-78740000D02*
X109855000Y-76835000D01*
X170815000Y-78740000D02*
X170815000Y-76835000D01*
X91145000Y-80322500D02*
X91145000Y-79035000D01*
X150200000Y-79035000D02*
X150495000Y-78740000D01*
X109560000Y-79035000D02*
X109855000Y-78740000D01*
X91440000Y-78740000D02*
X91440000Y-76835000D01*
X150200000Y-80322500D02*
X150200000Y-79035000D01*
X91145000Y-79035000D02*
X91440000Y-78740000D01*
%TO.N,Net-(A1-Pad25)*%
X86336774Y-129563226D02*
X86336774Y-127611774D01*
X62865000Y-115570000D02*
X62865000Y-110490000D01*
X89040000Y-129610000D02*
X88900000Y-129470000D01*
X86336774Y-127611774D02*
X83185000Y-124460000D01*
X83185000Y-124460000D02*
X83185000Y-121285000D01*
X90487500Y-129610000D02*
X89040000Y-129610000D01*
%TO.N,Net-(C1-Pad2)*%
X85090000Y-107950000D02*
X85090000Y-104775000D01*
X106680000Y-138810002D02*
X105854999Y-137985001D01*
X103810000Y-137985001D02*
X103505000Y-137680001D01*
X113665000Y-79870000D02*
X112150000Y-81385000D01*
X190190000Y-79600000D02*
X190190000Y-80322500D01*
X190190000Y-80322500D02*
X190190000Y-81011041D01*
X174625000Y-79870000D02*
X173110000Y-81385000D01*
X173110000Y-81385000D02*
X170243959Y-81385000D01*
X103505000Y-126365000D02*
X85090000Y-107950000D01*
X90495000Y-79633959D02*
X90170000Y-79308959D01*
X190190000Y-81011041D02*
X190563959Y-81385000D01*
X133985000Y-79870000D02*
X132470000Y-81385000D01*
X108585000Y-79275000D02*
X108585000Y-78105000D01*
X152790000Y-81385000D02*
X149923959Y-81385000D01*
X129230000Y-81011041D02*
X129230000Y-80322500D01*
X105854999Y-137985001D02*
X103810000Y-137985001D01*
X128905000Y-79275000D02*
X128905000Y-78105000D01*
X103505000Y-137680001D02*
X103505000Y-126365000D01*
X129603959Y-81385000D02*
X129230000Y-81011041D01*
X149923959Y-81385000D02*
X149550000Y-81011041D01*
X193430000Y-81385000D02*
X194945000Y-79870000D01*
X149550000Y-79600000D02*
X149225000Y-79275000D01*
X129230000Y-79600000D02*
X128905000Y-79275000D01*
X90170000Y-79308959D02*
X90170000Y-78105000D01*
X189775500Y-78105000D02*
X189775500Y-79185500D01*
X90495000Y-81011041D02*
X90868959Y-81385000D01*
X189775500Y-79185500D02*
X190190000Y-79600000D01*
X169870000Y-79600000D02*
X169545000Y-79275000D01*
X93735000Y-81385000D02*
X95250000Y-79870000D01*
X132470000Y-81385000D02*
X129603959Y-81385000D01*
X90868959Y-81385000D02*
X93735000Y-81385000D01*
X169545000Y-79275000D02*
X169545000Y-78105000D01*
X109283959Y-81385000D02*
X108910000Y-81011041D01*
X169870000Y-81011041D02*
X169870000Y-80322500D01*
X108910000Y-81011041D02*
X108910000Y-80322500D01*
X149225000Y-79275000D02*
X149225000Y-78105000D01*
X169870000Y-80322500D02*
X169870000Y-79600000D01*
X149550000Y-80322500D02*
X149550000Y-79600000D01*
X112150000Y-81385000D02*
X109283959Y-81385000D01*
X190563959Y-81385000D02*
X193430000Y-81385000D01*
X90495000Y-80322500D02*
X90495000Y-81011041D01*
X154305000Y-79870000D02*
X152790000Y-81385000D01*
X170243959Y-81385000D02*
X169870000Y-81011041D01*
X129230000Y-80322500D02*
X129230000Y-79600000D01*
X90495000Y-80322500D02*
X90495000Y-79633959D01*
X108910000Y-79600000D02*
X108585000Y-79275000D01*
X106680000Y-139485002D02*
X106680000Y-138810002D01*
X149550000Y-81011041D02*
X149550000Y-80322500D01*
X108910000Y-80322500D02*
X108910000Y-79600000D01*
%TO.N,Net-(R3-Pad2)*%
X188890000Y-84795000D02*
X188890000Y-86047500D01*
X192850000Y-84455000D02*
X191135000Y-84455000D01*
X190840000Y-84750000D02*
X191135000Y-84455000D01*
X191135000Y-84455000D02*
X189230000Y-84455000D01*
X190840000Y-86047500D02*
X190840000Y-84750000D01*
X194945000Y-86550000D02*
X192850000Y-84455000D01*
X189230000Y-84455000D02*
X188890000Y-84795000D01*
%TO.N,Net-(R4-Pad1)*%
X195899999Y-92100400D02*
X195899999Y-93854999D01*
X195899999Y-93854999D02*
X196025000Y-93980000D01*
%TO.N,Net-(R5-Pad1)*%
X192089999Y-92100400D02*
X192089999Y-93854999D01*
%TO.N,Net-(R6-Pad1)*%
X188279999Y-92100400D02*
X188279999Y-93854999D01*
%TO.N,Net-(A1-Pad14)*%
X35560000Y-112395000D02*
X35560000Y-107960000D01*
X46845000Y-115715000D02*
X38880000Y-115715000D01*
X46990000Y-115570000D02*
X46845000Y-115715000D01*
X99695000Y-125730000D02*
X99060000Y-125095000D01*
X99695000Y-133795000D02*
X99695000Y-125730000D01*
X38880000Y-115715000D02*
X35560000Y-112395000D01*
X42545000Y-100975000D02*
X42545000Y-95250000D01*
X35560000Y-107960000D02*
X42545000Y-100975000D01*
%TO.N,Net-(R15-Pad2)*%
X172460520Y-84455000D02*
X168910000Y-84455000D01*
X170520000Y-86047500D02*
X170520000Y-84750000D01*
X174625000Y-86550000D02*
X174555520Y-86550000D01*
X168570000Y-84795000D02*
X168570000Y-86047500D01*
X174555520Y-86550000D02*
X172460520Y-84455000D01*
X170520000Y-84750000D02*
X170815000Y-84455000D01*
X168910000Y-84455000D02*
X168570000Y-84795000D01*
%TO.N,Net-(R16-Pad2)*%
X150200000Y-86047500D02*
X150200000Y-84750000D01*
X154235520Y-86550000D02*
X152140520Y-84455000D01*
X148590000Y-84455000D02*
X148250000Y-84795000D01*
X150200000Y-84750000D02*
X150495000Y-84455000D01*
X148250000Y-84795000D02*
X148250000Y-86047500D01*
X154305000Y-86550000D02*
X154235520Y-86550000D01*
X152140520Y-84455000D02*
X148590000Y-84455000D01*
%TO.N,Net-(R17-Pad2)*%
X131820520Y-84455000D02*
X128270000Y-84455000D01*
X127930000Y-84795000D02*
X127930000Y-86047500D01*
X129880000Y-84750000D02*
X130175000Y-84455000D01*
X129880000Y-86047500D02*
X129880000Y-84750000D01*
X128270000Y-84455000D02*
X127930000Y-84795000D01*
X133915520Y-86550000D02*
X131820520Y-84455000D01*
X133985000Y-86550000D02*
X133915520Y-86550000D01*
%TO.N,Net-(R18-Pad2)*%
X107610000Y-84795000D02*
X107610000Y-86047500D01*
X111500520Y-84455000D02*
X107950000Y-84455000D01*
X107950000Y-84455000D02*
X107610000Y-84795000D01*
X109560000Y-86047500D02*
X109560000Y-84750000D01*
X113665000Y-86550000D02*
X113595520Y-86550000D01*
X109560000Y-84750000D02*
X109855000Y-84455000D01*
X113595520Y-86550000D02*
X111500520Y-84455000D01*
%TO.N,Net-(R19-Pad2)*%
X91145000Y-84750000D02*
X91145000Y-86047500D01*
X89195000Y-84795000D02*
X89195000Y-86047500D01*
X91440000Y-84455000D02*
X91145000Y-84750000D01*
X89535000Y-84455000D02*
X89195000Y-84795000D01*
X92075000Y-84455000D02*
X89535000Y-84455000D01*
X92075000Y-84455000D02*
X91440000Y-84455000D01*
X93155000Y-84455000D02*
X92075000Y-84455000D01*
X95250000Y-86550000D02*
X93155000Y-84455000D01*
%TO.N,Net-(R20-Pad1)*%
X184469999Y-92100400D02*
X184469999Y-93854999D01*
%TO.N,Net-(R21-Pad1)*%
X175579999Y-93854999D02*
X175705000Y-93980000D01*
X175579999Y-92100400D02*
X175579999Y-93854999D01*
%TO.N,Net-(R22-Pad1)*%
X171769999Y-92100400D02*
X171769999Y-93854999D01*
X171769999Y-93854999D02*
X171895000Y-93980000D01*
%TO.N,Net-(R23-Pad1)*%
X167959999Y-93854999D02*
X168085000Y-93980000D01*
X167959999Y-92100400D02*
X167959999Y-93854999D01*
%TO.N,Net-(R24-Pad1)*%
X164149999Y-93854999D02*
X164275000Y-93980000D01*
X164149999Y-92100400D02*
X164149999Y-93854999D01*
%TO.N,Net-(R25-Pad1)*%
X155259999Y-92100400D02*
X155259999Y-93854999D01*
X155259999Y-93854999D02*
X155385000Y-93980000D01*
%TO.N,Net-(R26-Pad1)*%
X151449999Y-93854999D02*
X151575000Y-93980000D01*
X151449999Y-92100400D02*
X151449999Y-93854999D01*
%TO.N,Net-(R27-Pad1)*%
X147639999Y-92100400D02*
X147639999Y-93854999D01*
X147639999Y-93854999D02*
X147765000Y-93980000D01*
%TO.N,Net-(R28-Pad1)*%
X143829999Y-93854999D02*
X143955000Y-93980000D01*
X143829999Y-92100400D02*
X143829999Y-93854999D01*
%TO.N,Net-(R29-Pad1)*%
X134939999Y-93854999D02*
X135065000Y-93980000D01*
X134939999Y-92100400D02*
X134939999Y-93854999D01*
%TO.N,Net-(R30-Pad1)*%
X131129999Y-92100400D02*
X131129999Y-93854999D01*
X131129999Y-93854999D02*
X131255000Y-93980000D01*
%TO.N,Net-(R31-Pad1)*%
X127319999Y-92100400D02*
X127319999Y-93854999D01*
X127319999Y-93854999D02*
X127445000Y-93980000D01*
%TO.N,Net-(R32-Pad1)*%
X123509999Y-93854999D02*
X123635000Y-93980000D01*
X123509999Y-92100400D02*
X123509999Y-93854999D01*
%TO.N,Net-(R33-Pad1)*%
X114619999Y-92100400D02*
X114619999Y-93854999D01*
%TO.N,Net-(R34-Pad1)*%
X110809999Y-92100400D02*
X110809999Y-93854999D01*
%TO.N,Net-(R35-Pad1)*%
X106999999Y-93854999D02*
X107125000Y-93980000D01*
X106999999Y-92100400D02*
X106999999Y-93854999D01*
%TO.N,Net-(R36-Pad1)*%
X103189999Y-93854999D02*
X103315000Y-93980000D01*
X103189999Y-92100400D02*
X103189999Y-93854999D01*
%TO.N,Net-(R37-Pad1)*%
X96204999Y-93854999D02*
X96330000Y-93980000D01*
X96204999Y-92100400D02*
X96204999Y-93854999D01*
%TO.N,Net-(U13-Pad2)*%
X184469999Y-90200398D02*
X184469999Y-89509600D01*
X188240000Y-86047500D02*
X188240000Y-87740305D01*
X186370001Y-92100400D02*
X184469999Y-90200398D01*
X187247304Y-88733001D02*
X185246598Y-88733001D01*
X188240000Y-87740305D02*
X187247304Y-88733001D01*
X185246598Y-88733001D02*
X184469999Y-89509600D01*
%TO.N,Net-(U3-Pad7)*%
X192089999Y-90200398D02*
X192089999Y-89509600D01*
X193990001Y-92100400D02*
X192089999Y-90200398D01*
X191490000Y-86047500D02*
X191490000Y-88909601D01*
X191490000Y-88909601D02*
X192089999Y-89509600D01*
%TO.N,Net-(U14-Pad2)*%
X169870000Y-86047500D02*
X169870000Y-87600000D01*
X172720000Y-88175500D02*
X174245899Y-88175500D01*
X177480001Y-92100400D02*
X175579999Y-90200398D01*
X175579999Y-90200398D02*
X175579999Y-89509600D01*
X174245899Y-88175500D02*
X175579999Y-89509600D01*
X169870000Y-87600000D02*
X170445500Y-88175500D01*
%TO.N,Net-(U15-Pad2)*%
X171769999Y-90200398D02*
X171769999Y-89509600D01*
X171170000Y-88909601D02*
X171769999Y-89509600D01*
X171170000Y-86047500D02*
X171170000Y-88909601D01*
X173670001Y-92100400D02*
X171769999Y-90200398D01*
%TO.N,Net-(U17-Pad2)*%
X167920000Y-87740305D02*
X166927304Y-88733001D01*
X164926598Y-88733001D02*
X164149999Y-89509600D01*
X167920000Y-86047500D02*
X167920000Y-87740305D01*
X164149999Y-90200398D02*
X164149999Y-89509600D01*
X166927304Y-88733001D02*
X164926598Y-88733001D01*
X166050001Y-92100400D02*
X164149999Y-90200398D01*
%TO.N,Net-(U16-Pad2)*%
X167959999Y-88580001D02*
X167959999Y-89509600D01*
X169220000Y-86047500D02*
X169220000Y-87320000D01*
X167959999Y-90200398D02*
X167959999Y-89509600D01*
X169860001Y-92100400D02*
X167959999Y-90200398D01*
X169220000Y-87320000D02*
X167959999Y-88580001D01*
%TO.N,Net-(U18-Pad2)*%
X149550000Y-86047500D02*
X149550000Y-87600000D01*
X153925899Y-88175500D02*
X155259999Y-89509600D01*
X152400000Y-88175500D02*
X153925899Y-88175500D01*
X149550000Y-87600000D02*
X150125500Y-88175500D01*
X155259999Y-90200398D02*
X155259999Y-89509600D01*
X157160001Y-92100400D02*
X155259999Y-90200398D01*
%TO.N,Net-(U19-Pad2)*%
X150850000Y-86047500D02*
X150850000Y-88909601D01*
X150850000Y-88909601D02*
X151449999Y-89509600D01*
X153350001Y-92100400D02*
X151449999Y-90200398D01*
X151449999Y-90200398D02*
X151449999Y-89509600D01*
%TO.N,Net-(U21-Pad2)*%
X144606598Y-88733001D02*
X143829999Y-89509600D01*
X146607304Y-88733001D02*
X144606598Y-88733001D01*
X147600000Y-86047500D02*
X147600000Y-87740305D01*
X145730001Y-92100400D02*
X143829999Y-90200398D01*
X147600000Y-87740305D02*
X146607304Y-88733001D01*
X143829999Y-90200398D02*
X143829999Y-89509600D01*
%TO.N,Net-(U20-Pad2)*%
X147639999Y-88580001D02*
X147639999Y-89509600D01*
X148900000Y-87320000D02*
X147639999Y-88580001D01*
X147639999Y-90200398D02*
X147639999Y-89509600D01*
X148900000Y-86047500D02*
X148900000Y-87320000D01*
X149540001Y-92100400D02*
X147639999Y-90200398D01*
%TO.N,Net-(U10-Pad2)*%
X125410001Y-92100400D02*
X123509999Y-90200398D01*
X127280000Y-87740305D02*
X126287304Y-88733001D01*
X124286598Y-88733001D02*
X123509999Y-89509600D01*
X127280000Y-86047500D02*
X127280000Y-87740305D01*
X126287304Y-88733001D02*
X124286598Y-88733001D01*
X123509999Y-90200398D02*
X123509999Y-89509600D01*
%TO.N,Net-(U10-Pad4)*%
X127319999Y-90200398D02*
X127319999Y-89509600D01*
X127319999Y-88580001D02*
X127319999Y-89509600D01*
X128580000Y-86047500D02*
X128580000Y-87320000D01*
X129220001Y-92100400D02*
X127319999Y-90200398D01*
X128580000Y-87320000D02*
X127319999Y-88580001D01*
%TO.N,Net-(U10-Pad7)*%
X133030001Y-92100400D02*
X131129999Y-90200398D01*
X130530000Y-86047500D02*
X130530000Y-88909601D01*
X130530000Y-88909601D02*
X131129999Y-89509600D01*
X131129999Y-90200398D02*
X131129999Y-89509600D01*
%TO.N,Net-(U12-Pad2)*%
X87630000Y-88733001D02*
X85196800Y-88733001D01*
X86675001Y-92100400D02*
X84774999Y-90200398D01*
X88545000Y-86047500D02*
X88545000Y-87818001D01*
X84774999Y-89154802D02*
X84774999Y-89509600D01*
X84774999Y-89509600D02*
X84774999Y-89215001D01*
X88545000Y-87818001D02*
X87630000Y-88733001D01*
X85196800Y-88733001D02*
X84774999Y-89154802D01*
X84774999Y-90200398D02*
X84774999Y-89509600D01*
%TO.N,Net-(J2-Pad2)*%
X190708201Y-93326799D02*
X190055000Y-93980000D01*
X197981000Y-101715000D02*
X192151000Y-95885000D01*
X190708201Y-90037800D02*
X190708201Y-93326799D01*
X204659669Y-101715000D02*
X197981000Y-101715000D01*
X190180001Y-89509600D02*
X190708201Y-90037800D01*
X190119000Y-95885000D02*
X192151000Y-95885000D01*
X190055000Y-95821000D02*
X190119000Y-95885000D01*
X190055000Y-93980000D02*
X190055000Y-95821000D01*
%TO.N,Net-(J2-Pad12)*%
X124081000Y-129415000D02*
X90551000Y-95885000D01*
X90360000Y-93790000D02*
X90360000Y-93980000D01*
X88519000Y-95885000D02*
X90551000Y-95885000D01*
X204659669Y-129415000D02*
X124081000Y-129415000D01*
X90360000Y-95694000D02*
X90551000Y-95885000D01*
X90360000Y-93980000D02*
X90360000Y-95694000D01*
X90485001Y-89509600D02*
X91013201Y-90037800D01*
X91013201Y-93326799D02*
X90360000Y-93980000D01*
X91013201Y-90037800D02*
X91013201Y-93326799D01*
%TO.N,Net-(J2-Pad24)*%
X207499669Y-128030000D02*
X127776000Y-128030000D01*
X94823201Y-90037800D02*
X94823201Y-93326799D01*
X94295001Y-89509600D02*
X94823201Y-90037800D01*
X94170000Y-95314000D02*
X93599000Y-95885000D01*
X94823201Y-93326799D02*
X94170000Y-93980000D01*
X94170000Y-93980000D02*
X94170000Y-95314000D01*
X93599000Y-95885000D02*
X95631000Y-95885000D01*
X127776000Y-128030000D02*
X95631000Y-95885000D01*
%TO.N,Net-(A1-Pad27)*%
X74930000Y-120015000D02*
X67945000Y-120015000D01*
X95250000Y-77915000D02*
X95440000Y-78105000D01*
X154305000Y-77915000D02*
X154305000Y-75565000D01*
X194945000Y-77915000D02*
X194945000Y-75565000D01*
X97155000Y-137725000D02*
X89535000Y-137725000D01*
X174625000Y-75565000D02*
X173355000Y-74295000D01*
X89535000Y-137725000D02*
X87630000Y-135820000D01*
X81280000Y-107315000D02*
X81280000Y-116840000D01*
X174815000Y-78105000D02*
X174625000Y-77915000D01*
X106540000Y-134550000D02*
X104775000Y-134550000D01*
X174625000Y-77915000D02*
X174625000Y-75565000D01*
X90487500Y-131908700D02*
X90487500Y-134512500D01*
D36*
X106030001Y-134704999D02*
X106030001Y-137235001D01*
D35*
X81280000Y-116840000D02*
X78105000Y-120015000D01*
X86430000Y-120015000D02*
X78105000Y-120015000D01*
X113665000Y-77915000D02*
X113665000Y-75565000D01*
X87630000Y-130105000D02*
X87630000Y-121215000D01*
X78105000Y-120015000D02*
X74930000Y-120015000D01*
X87630000Y-121215000D02*
X86430000Y-120015000D01*
X133985000Y-77827500D02*
X133985000Y-75565000D01*
X87630000Y-130105000D02*
X89433700Y-131908700D01*
X154305000Y-75565000D02*
X153035000Y-74295000D01*
X154495000Y-78105000D02*
X154305000Y-77915000D01*
X57785000Y-120205000D02*
X57975000Y-120015000D01*
X90487500Y-134512500D02*
X91300000Y-135325000D01*
X67945000Y-120015000D02*
X67945000Y-110490000D01*
X87630000Y-135820000D02*
X87630000Y-130105000D01*
X195135000Y-78105000D02*
X194945000Y-77915000D01*
X133985000Y-75565000D02*
X132715000Y-74295000D01*
X89433700Y-131908700D02*
X90487500Y-131908700D01*
X97720000Y-137160000D02*
X97155000Y-137725000D01*
X102235000Y-137160000D02*
X97720000Y-137160000D01*
X113855000Y-78105000D02*
X113665000Y-77915000D01*
X134262500Y-78105000D02*
X133985000Y-77827500D01*
X57975000Y-120015000D02*
X63500000Y-120015000D01*
X95250000Y-75565000D02*
X95250000Y-77915000D01*
X93980000Y-74295000D02*
X95250000Y-75565000D01*
X113665000Y-75565000D02*
X112395000Y-74295000D01*
D36*
X106185000Y-134550000D02*
X106030001Y-134704999D01*
D35*
X194945000Y-75565000D02*
X193675000Y-74295000D01*
%TO.N,Net-(J2-Pad1)*%
X198328201Y-93326799D02*
X197675000Y-93980000D01*
X203339000Y-98945000D02*
X200279000Y-95885000D01*
X197800001Y-89509600D02*
X198328201Y-90037800D01*
X197675000Y-93980000D02*
X199580000Y-95885000D01*
X199580000Y-95885000D02*
X200279000Y-95885000D01*
X198328201Y-90037800D02*
X198328201Y-93326799D01*
X204659669Y-98945000D02*
X203339000Y-98945000D01*
%TO.N,Net-(J2-Pad25)*%
X86550000Y-93980000D02*
X86550000Y-94806000D01*
X86675001Y-89509600D02*
X86675001Y-89757999D01*
X120386000Y-130800000D02*
X85471000Y-95885000D01*
X86675001Y-89509600D02*
X87203201Y-90037800D01*
X207499669Y-130800000D02*
X120386000Y-130800000D01*
X87203201Y-93326799D02*
X86550000Y-93980000D01*
X86550000Y-94806000D02*
X85471000Y-95885000D01*
X87203201Y-90037800D02*
X87203201Y-93326799D01*
%TO.N,Net-(J2-Pad3)*%
X181991000Y-95885000D02*
X179959000Y-95885000D01*
X178008201Y-90037800D02*
X178008201Y-93326799D01*
X204659669Y-104485000D02*
X190591000Y-104485000D01*
X177480001Y-89509600D02*
X178008201Y-90037800D01*
X178008201Y-93326799D02*
X177355000Y-93980000D01*
X190591000Y-104485000D02*
X181991000Y-95885000D01*
X179260000Y-95885000D02*
X179959000Y-95885000D01*
X177355000Y-93980000D02*
X179260000Y-95885000D01*
%TO.N,Net-(J2-Pad4)*%
X183201000Y-107255000D02*
X171831000Y-95885000D01*
X169735000Y-95821000D02*
X169799000Y-95885000D01*
X170388201Y-90037800D02*
X170388201Y-93326799D01*
X170388201Y-93326799D02*
X169735000Y-93980000D01*
X169735000Y-93980000D02*
X169735000Y-95821000D01*
X169799000Y-95885000D02*
X171831000Y-95885000D01*
X204659669Y-107255000D02*
X183201000Y-107255000D01*
X169860001Y-89509600D02*
X170388201Y-90037800D01*
%TO.N,Net-(J2-Pad5)*%
X204659669Y-110025000D02*
X175811000Y-110025000D01*
X157688201Y-93326799D02*
X157035000Y-93980000D01*
X159639000Y-95885000D02*
X161671000Y-95885000D01*
X157688201Y-90037800D02*
X157688201Y-93326799D01*
X158940000Y-95885000D02*
X159639000Y-95885000D01*
X157035000Y-93980000D02*
X158940000Y-95885000D01*
X157160001Y-89509600D02*
X157688201Y-90037800D01*
X175811000Y-110025000D02*
X161671000Y-95885000D01*
%TO.N,Net-(J2-Pad6)*%
X149415000Y-93980000D02*
X149415000Y-95821000D01*
X168421000Y-112795000D02*
X151511000Y-95885000D01*
X150068201Y-93326799D02*
X149415000Y-93980000D01*
X204659669Y-112795000D02*
X168421000Y-112795000D01*
X149415000Y-95821000D02*
X149479000Y-95885000D01*
X149540001Y-89509600D02*
X150068201Y-90037800D01*
X150068201Y-90037800D02*
X150068201Y-93326799D01*
X149479000Y-95885000D02*
X151511000Y-95885000D01*
%TO.N,Net-(J2-Pad7)*%
X137368201Y-93326799D02*
X136715000Y-93980000D01*
X161031000Y-115565000D02*
X141351000Y-95885000D01*
X136840001Y-89509600D02*
X137368201Y-90037800D01*
X204659669Y-115565000D02*
X161031000Y-115565000D01*
X136715000Y-93980000D02*
X138620000Y-95885000D01*
X138620000Y-95885000D02*
X139319000Y-95885000D01*
X137368201Y-90037800D02*
X137368201Y-93326799D01*
X139319000Y-95885000D02*
X141351000Y-95885000D01*
%TO.N,Net-(J2-Pad8)*%
X129095000Y-93980000D02*
X129095000Y-95821000D01*
X153641000Y-118335000D02*
X131191000Y-95885000D01*
X129095000Y-95821000D02*
X129159000Y-95885000D01*
X129220001Y-89509600D02*
X129220001Y-89757999D01*
X129748201Y-90286199D02*
X129748201Y-93326799D01*
X129220001Y-89757999D02*
X129748201Y-90286199D01*
X204659669Y-118335000D02*
X153641000Y-118335000D01*
X129748201Y-93326799D02*
X129095000Y-93980000D01*
X129159000Y-95885000D02*
X131191000Y-95885000D01*
%TO.N,Net-(J2-Pad9)*%
X118110000Y-95885000D02*
X118999000Y-95885000D01*
X146251000Y-121105000D02*
X121031000Y-95885000D01*
X116520001Y-89509600D02*
X117048201Y-90037800D01*
X121475000Y-95441000D02*
X121031000Y-95885000D01*
X204659669Y-121105000D02*
X146251000Y-121105000D01*
X117048201Y-90037800D02*
X117048201Y-93326799D01*
X117048201Y-93326799D02*
X116395000Y-93980000D01*
X116395000Y-93980000D02*
X116395000Y-94170000D01*
X118999000Y-95885000D02*
X121031000Y-95885000D01*
X116395000Y-94170000D02*
X118110000Y-95885000D01*
%TO.N,Net-(J2-Pad10)*%
X108900001Y-89509600D02*
X109428201Y-90037800D01*
X109428201Y-90037800D02*
X109428201Y-93516799D01*
X108965000Y-95759000D02*
X108839000Y-95885000D01*
X138861000Y-123875000D02*
X110871000Y-95885000D01*
X108839000Y-95885000D02*
X110871000Y-95885000D01*
X204659669Y-123875000D02*
X138861000Y-123875000D01*
X108965000Y-93980000D02*
X108965000Y-95759000D01*
X109428201Y-93516799D02*
X108965000Y-93980000D01*
%TO.N,Net-(R38-Pad1)*%
X92394999Y-92100400D02*
X92394999Y-93854999D01*
X92394999Y-93854999D02*
X92520000Y-93980000D01*
%TO.N,Net-(J2-Pad11)*%
X98633201Y-90037800D02*
X98633201Y-93326799D01*
X97980000Y-93980000D02*
X97980000Y-95186000D01*
X98105001Y-93854999D02*
X97980000Y-93980000D01*
X204659669Y-126645000D02*
X131471000Y-126645000D01*
X98679000Y-95885000D02*
X100711000Y-95885000D01*
X131471000Y-126645000D02*
X100711000Y-95885000D01*
X98105001Y-89509600D02*
X98633201Y-90037800D01*
X97980000Y-95186000D02*
X98679000Y-95885000D01*
X98633201Y-93326799D02*
X97980000Y-93980000D01*
%TO.N,Net-(J2-Pad14)*%
X193990001Y-89509600D02*
X194518201Y-90037800D01*
X194518201Y-90037800D02*
X194518201Y-93326799D01*
X193865000Y-93980000D02*
X193675000Y-94170000D01*
X207499669Y-100330000D02*
X201676000Y-100330000D01*
X193865000Y-93980000D02*
X193865000Y-94551000D01*
X197231000Y-95885000D02*
X195199000Y-95885000D01*
X193865000Y-94551000D02*
X195199000Y-95885000D01*
X201676000Y-100330000D02*
X197231000Y-95885000D01*
X194518201Y-93326799D02*
X193865000Y-93980000D01*
%TO.N,Net-(J2-Pad15)*%
X186898201Y-93326799D02*
X186245000Y-93980000D01*
X186370001Y-89757999D02*
X186898201Y-90286199D01*
X185039000Y-95885000D02*
X187071000Y-95885000D01*
X186370001Y-89509600D02*
X186370001Y-89757999D01*
X207499669Y-103100000D02*
X194286000Y-103100000D01*
X186245000Y-95059000D02*
X187071000Y-95885000D01*
X186898201Y-90286199D02*
X186898201Y-93326799D01*
X186245000Y-93980000D02*
X186245000Y-95059000D01*
X194286000Y-103100000D02*
X187071000Y-95885000D01*
%TO.N,Net-(J2-Pad16)*%
X174198201Y-93326799D02*
X173545000Y-93980000D01*
X173670001Y-89509600D02*
X174198201Y-90037800D01*
X174879000Y-95885000D02*
X176911000Y-95885000D01*
X186896000Y-105870000D02*
X176911000Y-95885000D01*
X207499669Y-105870000D02*
X186896000Y-105870000D01*
X173545000Y-94551000D02*
X174879000Y-95885000D01*
X174198201Y-90037800D02*
X174198201Y-93326799D01*
X173545000Y-93980000D02*
X173545000Y-94551000D01*
%TO.N,Net-(J2-Pad17)*%
X179506000Y-108640000D02*
X166751000Y-95885000D01*
X166578201Y-93326799D02*
X165925000Y-93980000D01*
X207499669Y-108640000D02*
X179506000Y-108640000D01*
X166578201Y-90037800D02*
X166578201Y-93326799D01*
X164719000Y-95885000D02*
X166751000Y-95885000D01*
X165925000Y-93980000D02*
X165925000Y-95059000D01*
X166050001Y-89509600D02*
X166578201Y-90037800D01*
X165925000Y-95059000D02*
X166751000Y-95885000D01*
%TO.N,Net-(J2-Pad18)*%
X153225000Y-93980000D02*
X153225000Y-94551000D01*
X153225000Y-94551000D02*
X154559000Y-95885000D01*
X172116000Y-111410000D02*
X156591000Y-95885000D01*
X207499669Y-111410000D02*
X172116000Y-111410000D01*
X153878201Y-93326799D02*
X153225000Y-93980000D01*
X153350001Y-89509600D02*
X153878201Y-90037800D01*
X154559000Y-95885000D02*
X156591000Y-95885000D01*
X153878201Y-90037800D02*
X153878201Y-93326799D01*
%TO.N,Net-(J2-Pad19)*%
X145730001Y-89509600D02*
X146258201Y-90037800D01*
X146258201Y-90037800D02*
X146258201Y-93326799D01*
X145605000Y-93980000D02*
X145605000Y-95059000D01*
X207499669Y-114180000D02*
X164726000Y-114180000D01*
X146258201Y-93326799D02*
X145605000Y-93980000D01*
X164726000Y-114180000D02*
X146431000Y-95885000D01*
X145605000Y-95059000D02*
X146431000Y-95885000D01*
X146431000Y-95885000D02*
X144399000Y-95885000D01*
%TO.N,Net-(J2-Pad20)*%
X133558201Y-93326799D02*
X132905000Y-93980000D01*
X133030001Y-89509600D02*
X133558201Y-90037800D01*
X207499669Y-116950000D02*
X157336000Y-116950000D01*
X134239000Y-95885000D02*
X136271000Y-95885000D01*
X132905000Y-94551000D02*
X134239000Y-95885000D01*
X157336000Y-116950000D02*
X136271000Y-95885000D01*
X132905000Y-93980000D02*
X132905000Y-94551000D01*
X133558201Y-90037800D02*
X133558201Y-93326799D01*
%TO.N,Net-(J2-Pad21)*%
X125938201Y-90037800D02*
X125938201Y-93326799D01*
X149946000Y-119720000D02*
X126111000Y-95885000D01*
X125285000Y-95059000D02*
X126111000Y-95885000D01*
X125410001Y-89509600D02*
X125938201Y-90037800D01*
X207499669Y-119720000D02*
X149946000Y-119720000D01*
X125285000Y-93980000D02*
X125285000Y-95059000D01*
X126111000Y-95885000D02*
X124079000Y-95885000D01*
X125938201Y-93326799D02*
X125285000Y-93980000D01*
%TO.N,Net-(J2-Pad22)*%
X207499669Y-122490000D02*
X142556000Y-122490000D01*
X112585000Y-94551000D02*
X113919000Y-95885000D01*
X112585000Y-93980000D02*
X112585000Y-94551000D01*
X142556000Y-122490000D02*
X115951000Y-95885000D01*
X113238201Y-93326799D02*
X112585000Y-93980000D01*
X112710001Y-89509600D02*
X113238201Y-90037800D01*
X113919000Y-95885000D02*
X115951000Y-95885000D01*
X113238201Y-90037800D02*
X113238201Y-93326799D01*
%TO.N,Net-(R39-Pad1)*%
X88584999Y-92100400D02*
X88584999Y-93854999D01*
X88584999Y-93854999D02*
X88710000Y-93980000D01*
%TO.N,Net-(R40-Pad1)*%
X84774999Y-92100400D02*
X84774999Y-93854999D01*
X84774999Y-93854999D02*
X84900000Y-93980000D01*
%TO.N,Net-(J2-Pad23)*%
X104775000Y-94170000D02*
X104965000Y-93980000D01*
X104775000Y-94869000D02*
X104775000Y-94170000D01*
X105791000Y-95885000D02*
X104775000Y-94869000D01*
X103759000Y-95885000D02*
X105791000Y-95885000D01*
X135166000Y-125260000D02*
X105791000Y-95885000D01*
X105618201Y-90037800D02*
X105618201Y-93326799D01*
X105090001Y-89509600D02*
X105618201Y-90037800D01*
X207499669Y-125260000D02*
X135166000Y-125260000D01*
X105090001Y-93854999D02*
X104965000Y-93980000D01*
X105618201Y-93326799D02*
X104965000Y-93980000D01*
%TO.N,Net-(J3-Pad1)*%
X46990000Y-129563226D02*
X64770000Y-129563226D01*
%TO.N,Net-(R8-Pad1)*%
X103744999Y-139065000D02*
X104165001Y-139485002D01*
X100965000Y-138995000D02*
X101035000Y-139065000D01*
X101035000Y-139065000D02*
X103744999Y-139065000D01*
X69966774Y-129680000D02*
X69850000Y-129563226D01*
X104165001Y-139485002D02*
X106030001Y-139485002D01*
%TO.N,Net-(A1-Pad26)*%
X65405000Y-119190000D02*
X65405000Y-110490000D01*
%TO.N,Net-(R7-Pad1)*%
X67755000Y-123190000D02*
X74930000Y-123190000D01*
X109220000Y-139630000D02*
X107474999Y-139630000D01*
X107474999Y-139630000D02*
X107330001Y-139485002D01*
X65405000Y-120840000D02*
X67755000Y-123190000D01*
%TO.N,Net-(A1-Pad10)*%
X193355000Y-79055000D02*
X193355000Y-78105000D01*
X192140000Y-86047500D02*
X193352500Y-86047500D01*
X193675000Y-79375000D02*
X193355000Y-79055000D01*
X52705000Y-95250000D02*
X52705000Y-89568226D01*
X71048226Y-71225000D02*
X188360000Y-71225000D01*
X193352500Y-86047500D02*
X193385200Y-86014800D01*
X193355000Y-76220000D02*
X193355000Y-78105000D01*
X188360000Y-71225000D02*
X193355000Y-76220000D01*
X52705000Y-89568226D02*
X71048226Y-71225000D01*
%TO.N,Net-(U3-Pad4)*%
X188279999Y-90200398D02*
X188279999Y-89509600D01*
X189540000Y-86047500D02*
X189540000Y-87320000D01*
X190180001Y-92100400D02*
X188279999Y-90200398D01*
X188279999Y-88580001D02*
X188279999Y-89509600D01*
X189540000Y-87320000D02*
X188279999Y-88580001D01*
%TO.N,Net-(U3-Pad5)*%
X195899999Y-90200398D02*
X195899999Y-89509600D01*
X197800001Y-92100400D02*
X195899999Y-90200398D01*
X190190000Y-87600000D02*
X190765500Y-88175500D01*
X190190000Y-86047500D02*
X190190000Y-87600000D01*
X195899999Y-89509600D02*
X194565899Y-88175500D01*
X194565899Y-88175500D02*
X193040000Y-88175500D01*
%TO.N,Net-(U10-Pad5)*%
X132080000Y-88175500D02*
X133605899Y-88175500D01*
X129230000Y-86047500D02*
X129230000Y-87600000D01*
X134939999Y-90200398D02*
X134939999Y-89509600D01*
X129230000Y-87600000D02*
X129805500Y-88175500D01*
X133605899Y-88175500D02*
X134939999Y-89509600D01*
X136840001Y-92100400D02*
X134939999Y-90200398D01*
%TO.N,Net-(U11-Pad2)*%
X105967304Y-88733001D02*
X103966598Y-88733001D01*
X103966598Y-88733001D02*
X103189999Y-89509600D01*
X103189999Y-90200398D02*
X103189999Y-89509600D01*
X106960000Y-87740305D02*
X105967304Y-88733001D01*
X105090001Y-92100400D02*
X103189999Y-90200398D01*
X106960000Y-86047500D02*
X106960000Y-87740305D01*
%TO.N,Net-(U11-Pad4)*%
X106999999Y-90200398D02*
X106999999Y-89509600D01*
X108260000Y-86047500D02*
X108260000Y-87320000D01*
X108260000Y-87320000D02*
X106999999Y-88580001D01*
X106999999Y-88580001D02*
X106999999Y-89509600D01*
X108900001Y-92100400D02*
X106999999Y-90200398D01*
%TO.N,Net-(U11-Pad5)*%
X108910000Y-87600000D02*
X109485500Y-88175500D01*
X111760000Y-88175500D02*
X113285899Y-88175500D01*
X108910000Y-86047500D02*
X108910000Y-87600000D01*
X113285899Y-88175500D02*
X114619999Y-89509600D01*
X116520001Y-92100400D02*
X114619999Y-90200398D01*
X114619999Y-90200398D02*
X114619999Y-89509600D01*
%TO.N,Net-(U11-Pad7)*%
X112710001Y-92100400D02*
X110809999Y-90200398D01*
X110809999Y-90200398D02*
X110809999Y-89509600D01*
X110210000Y-88909601D02*
X110809999Y-89509600D01*
X110210000Y-86047500D02*
X110210000Y-88909601D01*
%TO.N,Net-(U12-Pad5)*%
X96204999Y-90200398D02*
X96204999Y-89509600D01*
X98105001Y-92100400D02*
X96204999Y-90200398D01*
X90495000Y-87865500D02*
X90805000Y-88175500D01*
X93345000Y-88175500D02*
X94870899Y-88175500D01*
X90495000Y-86047500D02*
X90495000Y-87865500D01*
X94870899Y-88175500D02*
X96204999Y-89509600D01*
%TO.N,Net-(U12-Pad4)*%
X88584999Y-88580001D02*
X89845000Y-87320000D01*
X89845000Y-87320000D02*
X89845000Y-86047500D01*
X88584999Y-90200398D02*
X88584999Y-89509600D01*
X90485001Y-92100400D02*
X88584999Y-90200398D01*
X88584999Y-89509600D02*
X88584999Y-88580001D01*
%TO.N,Net-(U12-Pad7)*%
X94295001Y-92100400D02*
X92394999Y-90200398D01*
X91795000Y-86047500D02*
X91795000Y-88909601D01*
X91795000Y-88909601D02*
X92394999Y-89509600D01*
X92394999Y-90200398D02*
X92394999Y-89509600D01*
%TD*%
M02*
